<?xml version="1.0"?>
<svg xmlns:rdf="http://www.w3.org/1999/02/22-rdf-syntax-ns#" xmlns="http://www.w3.org/2000/svg" xmlns:cc="http://creativecommons.org/ns#" xmlns:dc="http://purl.org/dc/elements/1.1/" xmlns:svg="http://www.w3.org/2000/svg" id="svg2" width="75px" height="auto" viewBox="0 0 1038.2 1038.2" version="1.1">
  <g id="layer1" transform="translate(213.02 -33.184)">
    <path id="path4217" transform="matrix(1.0277 0 0 1.0277 314.37 274.26)" fill="#ecb413" d="m497 270.5c0 278.95-226.13 505.08-505.08 505.08s-505.08-226.13-505.08-505.08 226.13-505.08 505.08-505.08 505.08 226.13 505.08 505.08z"/>
    <g id="g5433" transform="translate(-632 272)" fill="#d39d13">
      <path id="path3338" d="m1017.3 28.849c-1.2065-0.86665-2.1546-2.6504-2.1546-4.0535 0-2.0893 0.4888-2.5057 2.941-2.5057 1.6175 0 3.2191 0.4615 3.559 1.0256 0.3399 0.56406 1.5612 1.0256 2.714 1.0256 2.0636 0 2.0667 0.03323 0.2022 2.1461-3.0749 3.4845-4.881 4.072-7.2616 2.362zm182.5 318.1c-0.8514-2.2754-3.6642-2.0003-3.6642 0.35839 0 2.1602 1.9914 3.383 3.3828 2.0773 0.4855-0.45563 0.6121-1.5517 0.2814-2.4357zm-535.66-87.999c0-0.69856 2.1375-3.2775 4.75-5.731l4.75-4.4609-2.25-1.573c-1.3085-0.91476-2.25-2.6292-2.25-4.0972 0-1.5612-0.4769-2.3629-1.25-2.1014-0.7607 0.25737-1.3697 2.7774-1.5557 6.4387-0.2318 4.562-0.7756 6.3533-2.25 7.4124-2.0139 1.4466-2.7044 5.3826-0.9443 5.3826 0.55 0 1-0.57155 1-1.2701zm5-22.318c0-0.56405-0.4766-1.0256-1.059-1.0256-0.5825 0-0.7809 0.46151-0.441 1.0256 0.3399 0.56406 0.8165 1.0256 1.059 1.0256 0.2426 0 0.441-0.4615 0.441-1.0256zm20-73.388c0-0.24873-0.45-0.45225-1-0.45225s-1 0.48874-1 1.0861c0 0.59735 0.45 0.80086 1 0.45225s1-0.83735 1-1.0861zm493-3.5289c0-0.56406-0.9-1.9486-2-3.0767-2.5721-2.6379-2.5207-3.2885 0.5051-6.3917l2.5051-2.5691-3.4969-3.9153c-1.9233-2.1534-3.7559-4.7522-4.0725-5.7752-0.3166-1.0229-1.0218-1.8599-1.5672-1.8599s-0.7396-0.41817-0.4316-0.92928 1.4595-0.68803 2.559-0.39317c3.2884 0.88193 2.4303-2.8026-1.7524-7.5239-2.8639-3.2327-4.7289-4.3815-7.902-4.8677-3.9678-0.60791-4.2491-0.4699-6.2965 3.0889-2.1081 3.6642-2.1121 3.7607-0.2456 5.8932 1.0436 1.1924 2.1781 2.983 2.5212 3.979 0.5121 1.4868 1.3443 1.6928 4.649 1.1509 3.5379-0.58018 4.0253-0.41929 4.0253 1.3287 0 1.0938 0.9 2.9795 2 4.1904 2.4367 2.6823 2.6014 7.2508 0.3231 8.9593-1.4755 1.1065-1.5164 1.6547-0.3409 4.5651 1.3091 3.2412 3.7798 4.9774 7.2678 5.1069 0.9625 0.0358 1.75-0.39649 1.75-0.96055zm-13.11-4.4789c0.8533-1.0545 0.8217-1.6509-0.1276-2.4047-3.856-3.0621-6.7313-2.0173-4.7734 1.7346 1.2529 2.4007 3.2765 2.6774 4.901 0.67005zm-462.52-3.9819c-0.5991-1.0226-0.4406-1.0244 0.783-0.009 0.8436 0.70018 1.83 0.96939 2.1919 0.59825 1.5612-1.6011 0.3755-2.3831-3.592-2.369-4.1613 0.0148-4.1978 0.0448-1.75 1.4378 3.2413 1.8445 3.2479 1.8455 2.3671 0.34183zm-13.867-1.7947c0.3399-0.56406-0.084-1.0256-0.941-1.0256-0.8574 0-1.559 0.4615-1.559 1.0256 0 0.56406 0.4234 1.0256 0.941 1.0256 0.5175 0 1.2191-0.4615 1.559-1.0256zm30-43.073c-0.3399-0.56406-1.2665-1.0256-2.059-1.0256-0.7926 0-1.441 0.4615-1.441 1.0256 0 0.56406 0.9266 1.0256 2.059 1.0256 1.1325 0 1.7809-0.4615 1.441-1.0256zm61.172-42.431-0.5994-4.485 4.0016-0.55045c4.5253-0.62248 8.9254-3.1905 8.9254-5.2092 0-1.397-4.0498-3.7304-6.4745-3.7304-0.7592 0-2.3393 1.2503-3.5113 2.7784-1.8475 2.4087-2.9076 2.7995-7.9682 2.9369-4.3838 0.11909-6.3931 0.68976-8.07 2.292-2.7249 2.6034-1.9921 5.3249 1.4336 5.3249 1.3598 0 2.7505 0.4615 3.0904 1.0256 0.3399 0.56406 1.4737 1.0256 2.5196 1.0256 1.0458 0 2.4818 0.67469 3.191 1.4993 2.6544 3.0865 4.1006 1.8718 3.4618-2.9077zm319.75 3.8625c1.1102-0.43692 1.5818-1.9656 1.5818-5.1278v-4.5053h-4c-3.9649 0-4 0.03415-4 3.8971 0 5.4256 2.2033 7.3947 6.4182 5.736zm15.582-1.4891c0-0.53077-1.35-0.96503-3-0.96503-3.4909 0-4.0577 1.7297-0.75 2.2888 2.6068 0.44061 3.75 0.03702 3.75-1.3237zm-318.57-1.592c0.87-0.34237 1.5818-1.1731 1.5818-1.846 0-1.8752-2.081-3.5886-3.6219-2.9822-1.429 0.56241-1.878 3.5706-0.7114 4.767 0.8116 0.83242 0.7929 0.83199 2.7515 0.06123zm287.17-22.008c1.0138-1.6822-0.1816-2.2978-3.0354-1.5632-1.4231 0.36631-2.3175 1.114-1.9876 1.6615 0.8046 1.3351 4.1992 1.2687 5.023-0.09825zm-281.59-8.136c0-2.163-1.4549-2.7598-2.5-1.0256-0.7292 1.21 0.2167 3.0767 1.559 3.0767 0.5176 0 0.941-0.923 0.941-2.0511zm74.755-3.8458c0.293-0.91278-1.0524-1.2819-4.6719-1.2819-3.9314 0-5.0833 0.36131-5.0833 1.5945 0 1.2594 0.9819 1.5288 4.6718 1.2819 2.6111-0.1747 4.8534-0.87805 5.0834-1.5945zm-64.255-1.7093c0-2.6169-1.8824-3.1363-3.8931-1.0741-2.016 2.0675-1.1321 3.7742 1.7375 3.3548 1.3508-0.19743 2.1556-1.0489 2.1556-2.2807zm172.5-2.7348c0-2.4993-2.3368-2.1461-2.8233 0.42684-0.1914 1.012 0.3187 1.7097 1.25 1.7097 0.9276 0 1.5733-0.87685 1.5733-2.1366zm56.75-4.6152c-0.953-0.97732-2.8635 0.60569-2.1533 1.7842 0.4221 0.70046 0.9814 0.68276 1.6996-0.05374 0.5888-0.60381 0.7929-1.3825 0.4537-1.7304zm-171.08-2.05c-0.3339-0.89222-0.607-2.2767-0.607-3.0767 0-1.7316-3.5793-1.9566-4.5848-0.28818-0.3924 0.65113 0.3545 2.0001 1.691 3.0539 2.9554 2.3304 4.3011 2.45 3.5008 0.31098zm20.811 0.99971c1.8812-0.74032 2.11-4.1046 0.3318-4.8782-0.6875-0.2991 0.6625-0.27858 3 0.04564 5.2935 0.73417 5.7788-1.1945 0.6649-2.6426-2.2799-0.64561-4.4895-0.66255-6.0694-0.04656-1.3664 0.53277-3.5839 0.68563-4.9279 0.3397-1.344-0.34594-3.0624-0.10225-3.8187 0.54141-1.0322 0.87858-2.0274 0.86559-3.9912-0.0521-2.5907-1.2106-4.2888-0.77851-3.2906 0.83721 1.1272 1.8246 7.8354 4.8091 8.5032 3.7832 1.5432-2.3709 4.0441-2.2852 5.6273 0.19278 1.7703 2.7708 1.741 2.757 3.9706 1.8795zm-55.418-3.0275c0-0.24874-0.45-0.45225-1-0.45225s-1 0.48874-1 1.0861c0 0.59735 0.45 0.80086 1 0.45225s1-0.83735 1-1.0861zm60-16.348c0-1.5779-2.6106-2.0207-5.4125-0.9181-2.3831 0.93788-0.8553 2.4564 2.4715 2.4564 1.9476 0 2.941-0.51964 2.941-1.5383z"/>
      <path id="path3336" d="m930.79 54.114c-2.0999-0.41662-4.5749-1.5345-5.5-2.4842-1.5766-1.6185-1.3059-1.684 4.3179-1.0447 3.3 0.37509 6.3883 1.0443 6.8629 1.4872 0.9124 0.85155 0 3.1175-1.1719 2.9171-0.3801-0.06492-2.4091-0.45881-4.5089-0.87544z"/>
      <path id="path3334" d="m963.79 96.353c0-0.55-0.45-1-1-1s-1 0.45-1 1 0.45 1 1 1 1-0.45 1-1z"/>
      <path id="path3330" d="m903.68 107.28c-1.6047-0.99179-2.3352-0.46569-1.4167 1.0204 0.368 0.59556 1.1361 0.79425 1.7069 0.44153 0.6718-0.41524 0.5696-0.93059-0.2902-1.4619zm15.537 1.4618c1.6759-0.6431 3.9879-5.0841 4.9866-9.5784 0.6224-2.8011-1.835-8.1676-5.7526-12.563-2.5699-2.8832-3.6167-2.8319-6.1193 0.29959-1.6763 2.0974-3.3676 2.7269-9.5376 3.5494-7.4977 0.99953-13.331 3.0099-14.576 5.0231-1.3607 2.2017 5.6252 10.162 7.379 8.4078 0.3666-0.36667-0.4449-1.5051-1.8035-2.5299-3.6195-2.7302-1.7972-3.4909 3.899-1.6278 2.7373 0.89529 5.9189 1.6278 7.0703 1.6278s2.3525 0.675 2.6691 1.5c0.3294 0.85855 1.8219 1.5 3.49 1.5 2.1384 0 3.2178 0.66575 4.0536 2.5 1.2048 2.6443 1.7013 2.8657 4.2409 1.8912z"/>
      <path id="path3328" d="m960.29 110.35c-0.3399-0.55-1.068-1-1.618-1s-0.7219 0.45-0.382 1 1.068 1 1.618 1 0.7219-0.45 0.382-1z"/>
      <path id="path3324" d="m891.35 139.41c3.085-0.77682 4.4428-1.6404 4.4428-2.8257 0-1.9892-4.3314-6.3908-5.3181-5.4042-1.0633 1.0633-4.6049-2.6885-4.0075-4.2453 0.2968-0.77332 0.041-1.406-0.5674-1.406-0.6089 0-1.107 0.675-1.107 1.5s-0.3375 1.52-0.75 1.5445-2.8919 0.19941-5.5097 0.38875c-2.6179 0.18934-5.0187-0.0746-5.3351-0.58662-0.3164-0.51198-2.3502-1.641-4.5194-2.509-4.5685-1.828-6.9038-5.0097-4.3861-5.9759 0.8723-0.33472 4.0669 0.17176 7.0991 1.1255 5.8133 1.8285 7.0409 1.6222 6.0297-1.0131-0.3923-1.0222-1.2909-1.3987-2.4558-1.029-2.1407 0.67944-5.737-2.7231-4.6821-4.43 0.3776-0.61095-0.4783-2.2757-1.902-3.6994s-2.5886-3.2324-2.5886-4.0194c0-0.78693-1.6428-2.9802-3.6507-4.8739-3.4985-3.2995-3.8008-3.3923-7.25-2.2243-4.7928 1.623-6.0993 2.6777-6.0993 4.9241 0 1.9273-0.7903 2.24-4.82 1.9075-3.6906-0.30452-8.3303 2.5038-13.111 7.9356-2.9778 3.3836-5.208 5.0345-6.8009 5.0345-3.1461 0-9.2571 6.6469-9.2634 10.076 0 1.4166 1.0077 3.492 2.2452 4.612 3.6464 3.3002 16.761 5.7208 18.219 3.3627 0.6822-1.1037 10.138-0.23378 12.901 1.1869 1.3981 0.71883 2.5866 0.43167 4.7096-1.1379 3.5314-2.6109 4.5736-2.6278 6.1526-0.0994 1.4545 2.329 6.2813 2.667 11.441 0.80116 2.7058-0.97841 4.3737-0.90422 9.071 0.40343 7.2926 2.0301 6.5963 1.9902 11.813 0.6767z"/>
      <path id="path3314" d="m770.85 225.35c0.1757-1.2319-0.1325-2.2398-0.6849-2.2398-0.5525 0-2.2713-0.51905-3.8196-1.1534-3.5293-1.4461-9.2171-1.8141-9.9408-0.64315-0.7138 1.155 1.4993 3.7966 3.1808 3.7966 0.7205 0 1.6036-0.92477 1.9624-2.055 0.7164-2.2572 2.9715-2.1382 2.9783 0.1573 0.01 2.0797 2.7523 4.8937 4.5042 4.6155 0.825-0.13101 1.6438-1.2461 1.8196-2.478zm4.1804-4.2012c0-1.4756 1.0528-2.2226 4.25-3.0157 2.3375-0.57982 5.6651-1.7675 7.3948-2.6393 2.0501-1.0334 3.9645-1.3151 5.5-0.80932 3.6245 1.1939 13.391 0.54914 16.536-1.0917 1.5503-0.8086 3.3028-1.473 3.8944-1.4763 0.5916-0.003 2.0697-1.0643 3.2847-2.3576 3.4042-3.6236 9.4701-5.2925 13.69-3.7665 2.8153 1.018 3.9283 0.9877 6.191-0.16861 7.6514-3.9102 9.6397-4.5976 18.453-6.3794 1.7482-0.35346 2.8015-1.2834 3-2.6487 0.2257-1.5535 1.3317-2.3161 4.2274-2.9147 2.1569-0.44592 4.5194-1.3068 5.25-1.9132 4.0677-3.3759-2.2667-12.953-11.213-16.954-3.5756-1.599-5.4725-3.0731-5.6666-4.4036-0.1988-1.3634-1.0975-2.0312-2.8233-2.0979-1.3923-0.0539-3.4245-0.57581-4.5159-1.1599-2.1615-1.1568-12.372-1.0281-14.328 0.1806-0.6671 0.41228-2.3023 0.0358-3.6338-0.83658-1.3315-0.87241-3.1117-1.5862-3.956-1.5862-0.8444 0-1.5352-0.43417-1.5352-0.96482 0-1.5764-4.2763-3.4141-7.5-3.2231-7.7528 0.45934-16.5 2.5568-16.5 3.9565 0 1.036-0.6946 1.2739-2.4404 0.83575-1.7874-0.44859-2.8271-0.0605-3.8853 1.4503-0.7946 1.1345-2.9589 3.164-4.8095 4.51-8.7028 6.3295-8.7717 6.4257-8.1812 11.411 0.5192 4.3838 0.3675 4.7477-3.072 7.3711-3.3607 2.5633-3.5734 3.0393-2.9897 6.6896 0.4948 3.0948 0.283 4.0625-0.9968 4.5536-0.8938 0.343-1.6251 1.1026-1.6251 1.6879 0 0.58535-0.6784 1.8139-1.5076 2.7301-2.1083 2.3297-0.9791 6.9424 2.6501 10.826 1.6274 1.7413 3.3719 3.166 3.8768 3.166s0.6589 0.675 0.3423 1.5c-0.3645 0.94984 0.014 1.5 1.0314 1.5 0.9298 0 1.607-0.82657 1.607-1.9615z"/>
      <path id="path3306" d="m1086 185.66c-3.7179-3.4637-2.3819-8.3477 1.6027-5.8593 1.9725 1.2319 4.3847 6.389 3.4333 7.3404-1.0705 1.0705-2.8632 0.54327-5.036-1.481zm-15.694-8.97c-0.343-0.55492-0.3392-1.9049 0.01-3 0.9091-2.8642 7.4972-2.8873 7.4972-0.0262 0 3.0706-5.9863 5.4843-7.5055 3.0262zm3.1192-24.373c3.494 0.87694 2.9111 2.3821-0.9226 2.3821-1.8198 0-4.1823 0.64759-5.25 1.4391-1.6517 1.2245-1.7547 1.7443-0.6911 3.4864 0.6875 1.126 1.25 2.2784 1.25 2.5609 0 1.2681-4.4529 0.32728-6.9851-1.4758-2.1032-1.4976-4.2426-1.954-8.6544-1.8463-3.2233 0.0787-7.3414-0.19088-9.1515-0.59905-4.1747-0.94144-6.6435 0.75447-5.1528 3.5398 0.6959 1.3002 2.1016 1.895 4.479 1.895 3.716 0 4.3723 1.002 1.9648 3-3.0892 2.5638-0.869 9.3271 3.5697 10.874 1.5366 0.53569 3.7919 0.71301 5.0117 0.39403 1.3999-0.3661 2.6379-0.005 3.3573 0.97862 0.6268 0.8572 2.247 1.7148 3.6005 1.9057 1.6996 0.23978 2.3693 0.89117 2.165 2.1058-0.1627 0.96721 0.9623 2.8484 2.5 4.1804 2.2068 1.9117 2.5389 2.6829 1.5762 3.6611-0.9644 0.97983-0.1597 1.9372 3.8443 4.5742 2.7851 1.8342 6.2589 3.6336 7.7196 3.9984 1.4606 0.36491 3.8487 1.9378 5.3069 3.4954 3.0083 3.2133 6.1721 3.8792 5.141 1.0819-0.3548-0.9625-2.1407-3.5964-3.9687-5.853-1.8279-2.2566-3.3092-5.1816-3.2917-6.5 0.031-2.3232 0.077-2.3372 1.5-0.45588 0.8075 1.0676 1.4682 2.8052 1.4682 3.8613 0 1.9984 0.5708 2.0031 10.25 0.0839 2.2759-0.45125 2.75-0.1953 2.75 1.4845 0 1.1164 0.6317 2.3896 1.4038 2.8295 0.7721 0.43983 1.5596 1.9247 1.75 3.2997 0.3067 2.2148 0.8885 2.5348 5.1001 2.805 4.3351 0.27809 4.8415 0.0742 5.75-2.3151 1.597-4.2004 1.2671-13.449-0.5039-14.128-0.825-0.31659-1.5-1.3577-1.5-2.3136 0-0.95591-0.9033-2.5555-2.0074-3.5547-2.7481-2.4869-5.0137-7.2748-4.3101-9.1083 0.3429-0.89341-0.292-2.1236-1.551-3.0054-1.1723-0.82111-2.1315-2.3306-2.1315-3.3544 0-2.5221-1.0274-5.0251-2.0626-5.0251-1.1802 0-8.2286-4.8607-9.1502-6.3101-1.3747-2.162-0.8178-4.4486 1.2128-4.9796 3.0966-0.80978 2.3898-4.1756-1.5-7.1424-1.925-1.4683-3.5562-2.4217-3.625-2.1187-0.069 0.30299-0.1933 1.1134-0.2768 1.8009-0.086 0.70511-1.2298 1.1358-2.625 0.98812-4.4356-0.46968-5.0642-1.0272-4.353-3.8609 0.6289-2.506 0.5035-2.6251-2.0814-1.9763-1.842 0.46233-3.5743 0.15062-5.2444-0.94363-2.4591-1.6113-2.6622-3.3408-0.8844-7.5291 0.4637-1.0922-0.1424-1.9408-1.9863-2.7809-3.0716-1.3995-6.4237-0.6584-6.4237 1.4202 0 2.018-5.8723 1.8582-8.1713-0.22238-1.0058-0.91024-1.8287-2.4301-1.8287-3.3776 0-0.94742-0.6707-2.2792-1.4903-2.9594-0.8917-0.74002-1.268-2.1229-0.9368-3.4426 0.4369-1.7408-0.2747-2.7798-3.3762-4.9291-2.1615-1.4979-4.9684-3.8288-6.2376-5.1798-1.2693-1.351-3.3277-2.4564-4.5744-2.4564s-2.5187-0.40775-2.8267-0.90612c-0.7215-1.1675-4.5746-0.22925-6.7408 1.6414-1.7632 1.5225-7.1223 0.99537-9.5234-0.9368-0.6634-0.53384-1.7884-0.60627-2.5-0.16096s-1.9318 0.82155-2.7116 0.83609c-1.6318 0.0304-6.0121 8.0333-6.054 11.061-0.017 1.1963-1.3059 2.7892-3.1299 3.8666-2.6345 1.5562-3.0151 2.2649-2.5272 4.7047 0.7727 3.8631-0.1502 5.8943-2.6781 5.8943-1.3646 0-1.7525 0.34051-1.1145 0.97847 0.6379 0.63796 2.244 0.40486 4.615-0.66982 2.8384-1.2866 3.6003-2.1812 3.4715-4.0767-0.1494-2.1995 0.2828-2.4691 4.585-2.8593 4.6994-0.42631 6.6122 0.90717 2.75 1.9172-1.1 0.28766-2 1.1713-2 1.9636 0 0.79234 0.9 2.4783 2 3.7466 2.457 2.8329 2.5108 3.744 0.25 4.2281-0.9625 0.20612 0.3664 0.42314 2.9531 0.48226 6.3431 0.14499 7.7311-1.5455 5.1906-6.3219-1.0415-1.9582-2.6812-3.9875-3.6437-4.5096-4.7217-2.5612 0.5566-5.9458 6.5674-4.2111 3.0897 0.89169 3.1826 1.0823 3.1826 6.532v5.6135l9 2.9274c8.1291 2.6441 10.201 2.9508 11.736 2.8474 1.5353-0.10351 1.9476-0.28134 7.1069 0.44367 3.2137 0.4516 6.0558 1.0338 6.3158 1.2938zm-13.114-9.6179c0.3399-0.55 1.2665-1 2.059-1 0.7926 0 1.441 0.45 1.441 1s-0.9266 1-2.059 1c-1.1325 0-1.7809-0.45-1.441-1zm60.19 75.364c0.6863-1.7884-0.6474-4.5164-2.5119-5.1379-0.6482-0.21607-1.1786 0.28932-1.1786 1.1231 0 0.83377-0.9 1.8016-2 2.1507-3.6688 1.1644-2.2021 3.5 2.1981 3.5 1.7297 0 3.1134-0.64816 3.4924-1.6359zm-87.941-48.167c1.4996-1.8942 0.096-3.1571-3.5351-3.1815-1.2568-0.008-3.34-0.70646-4.6292-1.5512-2.1294-1.3952-2.4025-1.3836-2.9822 0.12706-0.3823 0.99631 0.031 2.1521 1.0307 2.8832 1.1742 0.85856 1.3275 1.4313 0.5174 1.932-2.4755 1.5299-0.9348 2.3256 3.5985 1.8586 2.6241-0.27033 5.3094-1.196 5.9999-2.0682zm-21.562-4.8799c-0.7219-0.28887-1.5844-0.25335-1.9167 0.0789-0.3323 0.33229 0.2584 0.56864 1.3125 0.52522 1.165-0.048 1.4019-0.28494 0.6042-0.60416zm-13.187-51.317c0-0.55-0.45-1-1-1s-1 0.45-1 1 0.45 1 1 1 1-0.45 1-1z"/>
      <path id="path3304" d="m923.29 207.22c-5.067-2.5188-6.7775-2.8949-11-2.4182-6.0958 0.68816-14.893 2.2266-17.545 3.0684-1.0754 0.34132-1.9516 0.25275-1.9471-0.19681 0.015-1.5504 13.394-13.947 23.872-22.12 5.5703-4.3449 8.1247-5.1005 9.922-2.9348 1.5171 1.8279 4.0025 13.307 3.4767 16.057-0.2462 1.2881 0.2225 3.9459 1.0416 5.9063 1.0872 2.6021 1.1909 3.8626 0.3842 4.6694-1.4116 1.4116-1.1496 1.4764-8.2051-2.0309z"/>
      <path id="path3302" d="m942.02 215.25c-3.425-1.2751-3.6677-3.1857-1.744-13.729 0.9697-5.3155 1.9543-11.915 2.1879-14.665 1.0641-12.527 5.0687-13.058 17.016-2.2591 13.929 12.591 15.276 14.433 11.313 15.469-1.1 0.28766-2 0.87608-2 1.3076 0 0.84656-5.8607 4.6616-10.13 6.5942-1.4464 0.65476-2.9397 1.6917-3.3183 2.3044-0.3787 0.61265-2.3452 1.8672-4.3701 2.7878-2.0249 0.92067-4.3566 1.9803-5.1816 2.3548-0.825 0.37446-2.5225 0.30017-3.7722-0.16507z"/>
      <path id="path3300" d="m997.79 347.35c0-0.55 0.675-1 1.5-1 0.82497 0 1.5 0.45 1.5 1s-0.675 1-1.5 1-1.5-0.45-1.5-1z"/>
      <path id="path3298" d="m981.38 351.19c-1.2093-0.70209-21.035-7.1486-18.845-9.015 2.2291-1.9001 15.005-8.8183 16.284-8.8183 1.3391 0 1.2128 3.3528-0.1788 4.7444-1.4839 1.4839 0.5873 6.8638 3.8338 9.9579 3.6443 3.4734 2.9445 5.4759-1.0941 3.1311z"/>
      <path id="path3294" d="m969.05 302.56c-6.9149 1.3445-14.832 4.0899-14.84 5.1462-0.014 1.7445 3.5379 4.4847 7.6403 5.8951 4.4128 1.517 5.4296 3.2165 2.2035 3.6828-1.9915 0.28785-10.337 6.2274-10.201 11.3 0.3691 13.758 27.436 30.754 29.27 29.12 0.8683-0.77388 2.6501-1.5614 3.9596-1.75 2.1046-0.30315 2.5289 0.23616 3.6565 4.6476 1.3433 5.2557 1.0229 6.6149-2.6865 11.394-1.0753 1.3854-1.8509 4.0149-1.8509 6.2747 0 3.3116-0.4038 4.0434-2.7161 4.9226-1.8617 0.7078-2.3253 1.2742-1.4736 1.8006 0.6834 0.4223 1.5222 3.1288 1.8639 6.0143 0.3418 2.8855 1.3987 6.2063 2.3487 7.3795 1.6549 2.0437 1.8269 2.0612 4.1022 0.4176 6.5504-4.7318 10.206-6.8105 12.94-7.3572 1.6538-0.3307 3.5533-1.3686 4.2211-2.3063 0.6677-0.9377 2.5641-2.3443 4.2141-3.1257 2.5236-1.1951 3.0794-2.1326 3.5-5.9036 0.4668-4.185 0.8087-4.6291 5.145-6.6826 2.5547-1.2098 5.7967-3.3514 7.2045-4.7592s3.615-2.5596 4.905-2.5596 2.8907-0.5452 3.557-1.2115 2.8938-1.1059 4.95-0.9767c3.141 0.1973 4.3494-0.3683 7.5608-3.5385 4.8947-4.832 10.678-12.734 10.678-14.591 0-0.79065 0.675-1.9978 1.5-2.6824 1.9641-1.6301 1.9229-4-0.07-4-1.0627 0-1.4587-0.72654-1.2262-2.25 0.1888-1.2375 0.8951-2.1375 1.5695-2 1.641 0.33454 1.5476-0.94297-0.2419-3.3089-0.8075-1.0676-1.4825-2.7201-1.5-3.6721-0.018-0.99783-1.0906-1.9967-2.5318-2.3584-1.949-0.48916-2.5-1.2678-2.5-3.5326 0-1.5978 0.5354-3.7625 1.1898-4.8104 1.643-2.6307-0.3467-4.9514-3.6961-4.3112-2.8514 0.54507-3.1655-0.35665-0.9696-2.7831 3.3635-3.7166-0.3013-5.3631-16.875-7.5814l-33.149-1.392c0.3727-0.60301-0.96986-1-3.382-1-2.2 0-4.2781 0.45-4.618 1-0.3727 0.60301-23.651 1.4488-23.651 1.4488zm13.671 105.79c2.3966 0 3.0657-0.4355 3.0657-1.9953 0-1.7672-0.6287-1.9807-5.5-1.8684-4.963 0.1144-5.5 0.3418-5.5 2.3286 0 2.939 0.8897 3.6645 3.0657 2.4999 0.9916-0.5306 3.1824-0.9648 4.8686-0.9648z"/>
      <path id="path3292" d="m833.75 334.49c-1.3421-0.55529-1.3073-0.86254 0.2727-2.4091 1.6208-1.5867 1.8749-1.6058 2.421-0.18278 0.7737 2.0164-0.6872 3.4221-2.6937 2.5919z"/>
      <path id="path3290" d="m885.2 387.73c0.4542-1.1835 1.3989-1.4666 3.4949-1.0474 2.0547 0.4109 3.35 0.047 4.5496-1.2786 1.5775-1.7431 1.5468-1.9745-0.5164-3.8966-1.2064-1.124-1.9555-2.6635-1.6648-3.4213 0.2908-0.7577-0.2262-1.8492-1.149-2.4255-0.9227-0.5763-2.2949-3.4559-3.0492-6.3991-0.7544-2.9432-2.2028-6.7145-3.2188-8.3805s-1.8489-4.2627-1.851-5.7704c0-1.598-0.94505-5.2097-3.5682-7.411l-3.5644-4.6697 2.8144-2.2692c2.5193-2.0312 2.6774-2.4946 1.5071-4.4173-1.5535-2.5525-0.1099-4.9914 2.9546-4.9914 1.1417 0 2.3085-1.0685 2.9184-2.6724 1.2404-3.2626 0.5739-5.3276-1.7198-5.3276-0.9443 0-2.6459-0.83766-3.7813-1.8615-2.7221-2.4544-8.5588-4.3737-9.9625-3.276-1.7046 1.3329-6.2678 2.203-8.0225 1.5296-0.8687-0.33335-1.5795-1.4875-1.5795-2.5648 0-3.7986-1.8457-5.4708-7.5483-6.8389-5.514-1.3228-5.7101-1.2973-7.4139 0.96155-1.565 2.0748-2.2562 2.2444-6.5321 1.6032-4.343-0.65128-4.7293-0.54898-4.2091 1.1149 0.3149 1.0076 0.8709 2.8114 1.2354 4.0084 0.4686 1.5387 0.048 2.7026-1.4346 3.9722-2.476 2.12-2.65 3.6479-0.6084 5.3422 1.9525 1.6204 1.0073 3.0091-2.048 3.0091-1.5031 0-2.441 0.57634-2.441 1.5 0 0.825 0.4988 1.5 1.1084 1.5 0.6862 0 0.8668 0.96283 0.474 2.5276-0.4443 1.7702 0.1521 3.8696 1.9901 7.0059 4.0605 6.9287 22.265 24.467 25.397 24.467 0.7838 0 1.059 0.7827 0.7247 2.0612-0.3614 1.3817 0.012 2.227 1.1333 2.5643 0.9198 0.2767 3.4724 1.3453 5.6724 2.3745s4.9 2.1949 6 2.5904c2 0.7191 2 0.7191 0 1.1614-3.0763 0.6804-3.7906 1.8368-2.5575 4.1408 0.7577 1.4157 2.101 2.1074 4.0927 2.1074 1.7213 0 2.9648 0.5297 2.9648 1.2629 0 2.9567 8.3639 4.8371 9.4084 2.1152z"/>
      <path id="path3282" d="m468.89 307.93c2.4446 1.5948 5.3127 7.1003 6.4557 12.392 0.73788 3.4166 3.3257 5.1628 4.5188 3.0493 0.41147-0.72866 1.7604 0.92287 3.3809 4.1398 1.4831 2.9437 3.8438 6.2856 5.246 7.4262 1.4023 1.1408 2.6041 3.0702 2.6707 4.2876 0.14716 2.6918 7.7643 10.894 11.812 12.72 1.6139 0.7281 3.8959 1.16 5.0711 0.96007 2.8252-0.4799 11.153 6.6942 11.32 9.7527 0.0722 1.319 1.2495 2.8939 2.8208 3.7732 2.4129 1.3502 2.7087 2.1109 2.8093 7.2224 0.1219 6.1869 1.5185 12.146 2.8299 12.074 0.4501-0.0247 1.2168 1.7502 1.7041 3.9439 0.66292 2.9857 1.5236 4.1845 3.4226 4.7671 2.2155 0.67997 2.5456 1.3601 2.6062 5.371 0.0417 2.7698 0.59861 4.8708 1.4032 5.2939 1.032 0.54302 0.93087 1.6322-0.44672 4.8136-1.4095 3.2555-1.5483 4.9082-0.66618 7.9334 1.3053 4.4764 1.1195 4.9563-2.7822 7.1821-2.0886 1.1915-2.9083 2.4223-2.8099 4.2194 0.21025 3.845-4.315 9.6577-7.6611 9.8408-1.5224 0.0833-3.3672-0.36779-4.0998-1.0026-1.0507-0.91062-1.757-0.86375-3.3483 0.22018-1.1766 0.80093-3.4095 1.2032-5.3577 0.96421-3.1094-0.38151-3.5565-0.0477-6.4604 4.8232-1.7157 2.8782-3.4501 5.2444-3.8541 5.2582-2.0901 0.0713-9.132-2.4304-9.5194-3.3819-0.24606-0.60445 1.6685-2.1444 4.2544-3.4222l4.7016-2.323-0.93984-4.1252c-1.2103-5.3119-1.6481-5.8687-4.0299-5.1257-1.7848 0.55673-1.9326 0.21761-1.5618-3.5829 0.3176-3.2563-0.51671-6.482-3.7197-14.382-2.2709-5.601-4.9031-10.55-5.8492-10.997-1.8724-0.88497-2.428-3.715-1.0418-5.3073 0.47843-0.54948 0.55485-2.4465 0.16972-4.2156-0.59473-2.7323-1.1298-3.193-3.5537-3.0604-2.9004 0.15867-6.1875-2.1453-4.9561-3.4738 0.37144-0.40101 2.1373-1.2754 3.9242-1.9431 2.1078-0.78774 3.3177-1.9654 3.4456-3.3537 0.10818-1.177 1.277-3.2348 2.5974-4.573 1.3201-1.3385 2.3547-3.2678 2.2993-4.2874-0.0558-1.02 0.57299-2.1475 1.397-2.5058 1.1467-0.49843 1.2221-1.0924 0.32096-2.5294-0.64754-1.0328-1.4993-4.2085-1.8927-7.0571-2.2956-16.623-6.3782-27.15-12.277-31.659-2.2503-1.7196-4.4618-3.1252-4.9145-3.1233-0.45303 0.002-0.61612-1.5016-0.36258-3.3409 0.62152-4.5102-2.9354-16.174 0.92275-13.657zm25.035 155.2c2.8447-1.6228 3.2957-1.6524 4.8358-0.31762 1.5405 1.3349 1.3548 1.6336-1.9911 3.2034-4.6105 2.1632-5.7996 2.239-5.9015 0.37587-0.0443-0.80961 1.3312-2.2775 3.0567-3.2618z"/>
      <path id="path3280" d="m837.28 622.76c0.2483 2.1125-1.1482 8.4161-2.2994 10.379-1.2589 2.1465-6.1359 2.2596-11.016 0.2553-3.392-1.3929-4.2239-2.1949-4.8193-4.6461-1.4391-5.9251 4.0826-10.573 11.358-9.5612 5.1211 0.7121 6.527 1.4536 6.7763 3.5731z"/>
      <path id="path3274" d="m1295.3-5.3255c0.5687 0.007 1.0393-0.43763 1.0459-0.98759 0.01-0.54996-0.4534-1.0055-1.022-1.0123-0.5686-0.007-1.0392 0.43764-1.0458 0.9876-0.01 0.54995 0.4534 1.0055 1.0219 1.0122z"/>
      <path id="path3272" d="m1216.8-88.818c0.5539 0.58735 0.9138 0.33182 0.9256-0.65722 0.011-0.88993 0.3102-2.3265 0.6657-3.1923 0.4673-1.138 0.029-1.5816-1.6015-1.601-1.8503-0.0221-2.1284 0.37275-1.572 2.2314 0.3718 1.242 1.0838 2.6906 1.5822 3.2191z"/>
      <path id="path3270" d="m1239.9-79.991c1.676 0.02 6.6698 3.7126 7.1705 5.3023 0.3102 0.98477 0.9978 1.7956 1.5281 1.802 0.5303 0.006 0.959 0.44627 0.9527 0.97773-0.018 1.5409-6.8674-2.9036-8.661-5.6204-0.8965-1.3581-1.3423-2.4658-0.9903-2.4616z"/>
      <path id="path3268" d="m1237.4-81.674c-1.2265-0.38553-3.6427-1.8457-6.6011-4.177-1.5947-1.2566-3.958-2.2974-5.2519-2.3128-2.091-0.0249-2.5009 0.72032-3.6885 6.7065-0.7349 3.704-1.3935 9.6418-1.4638 13.195-0.1309 6.6185 0.8912 8.3109 3.693 6.1164 1.1781-0.92281 1.849-0.24546 3.5416 3.5751 1.1485 2.5924 2.0817 5.2438 2.074 5.8919-0.01 0.64824 1.1046 2.6819 2.4718 4.5192 1.5405 2.0703 2.7307 5.4336 3.1301 8.8446 0.4742 4.0502 1.4432 6.4055 3.6688 8.9166 1.8531 2.0908 3.2214 4.9686 3.5328 7.4302 0.3733 2.9492 0.9884 4.0234 2.3133 4.0392 1.887 0.0225 3.7979 1.847 5.5737 5.3218 0.6555 1.2829 2.9121 2.5319 6.009 3.3261 2.7275 0.69947 5.483 1.7906 6.1234 2.4249 0.6402 0.6342 2.8749 1.1735 4.966 1.1984 2.171 0.0259 4.3639 0.71628 5.112 1.6094 1.7197 2.0532 5.2969 1.5344 6.6776-0.96875 2.6293-4.7662 5.1308-7.4393 6.9417-7.4178 1.0723 0.0128 1.9572-0.65171 1.967-1.4766 0.01-0.82494-0.6799-1.5082-1.5328-1.5184s-1.5407-0.86333-1.5284-1.896c0.012-1.0325-0.6688-2.4458-1.5135-3.1407-0.8448-0.69482-1.5202-2.5881-1.5009-4.2074 0.019-1.6192-1.1103-4.4328-2.5103-6.2523-1.4001-1.8195-2.5368-4.0374-2.5262-4.9286 0.011-0.89114-0.9054-2.113-2.0356-2.7153-1.1302-0.60224-2.0478-1.6989-2.039-2.4372 0.025-2.0618-3.0687-4.1342-5.7176-3.8306-2.0346 0.23327-2.3593-0.15863-2.2535-2.7195 0.1859-4.4956-2.0969-9.0996-4.8617-9.8059-1.3304-0.33978-3.8017-2.6895-5.4918-5.2216-1.3529-2.027-2.1268-3.4373-2.3975-4.2741z"/>
      <path id="path3266" d="m723.08-138.39c2.281-0.64132 2.8707-3.0131 0.76506-3.0772-2.1667-0.066-10.048 4.2447-10.049 5.4964-0.00047 0.63859 0.55463 0.82969 1.2327 0.42495 0.67852-0.405 2.0792-0.42162 3.1126-0.0371 1.2613 0.46951 2.0403 0.21903 2.369-0.76152 0.26943-0.80356 1.4256-1.724 2.5692-2.0455z"/>
      <path id="path3264" d="m523.49-3.1608c-0.29143-0.48824-1.1324-0.52818-1.8686-0.08874-0.7363 0.4395-0.86138 1.056-0.2781 1.3701 0.58334 0.31412 1.4243 0.35406 1.8686 0.08883 0.44444-0.26529 0.56952-0.88183 0.27805-1.3702z"/>
      <path id="path3262" d="m548.39 28.112c0.62492-2.6619 6.0478-7.4917 13.216-11.77 4.3975-2.6248 8.2481-5.2771 8.5568-5.8941 0.30882-0.61698 2.5057-1.6313 4.8819-2.2542 3.6383-0.95373 4.6047-1.6051 6.1217-4.1262 0.99078-1.6466 3.7525-4.1584 6.1373-5.5819 2.3849-1.4235 4.1549-2.8915 3.9336-3.2623-0.22137-0.37086 0.0865-1.6628 0.68402-2.8709 0.92613-1.8724 1.6813-2.1786 5.115-2.0739 2.9812 0.09087 4.6969-0.47507 6.5998-2.1771 1.894-1.6939 3.6323-2.2741 6.5991-2.202 2.2152 0.05372 5.0729-0.52412 6.3505-1.2842 2.7611-1.6481 5.8188-5.8155 5.8371-7.9696 0.0216-2.5253 3.0862-3.6596 4.6555-1.7231 1.7441 2.1521 5.9466 2.4631 5.5298 0.40925-0.39139-1.9288 2.9337-7.1465 4.7405-7.439 0.83043-0.1343 2.1591-1.1216 2.9526-2.1938 0.79353-1.0724 2.3651-2.819 3.4925-3.8814 1.2758-1.2026 1.7045-2.5126 1.1355-3.4704-1.6012-2.702-1.0237-9.2664 1.1105-12.562 1.1363-1.7552 1.9187-4.3825 1.7387-5.8386-0.19391-1.5679 0.4132-3.0898 1.4887-3.7317 1.0784-0.64369 1.5743-1.8934 1.2207-3.0763-0.39772-1.3308 1.028-4.2261 4.294-8.7199 2.6892-3.7002 5.0965-7.2586 5.3497-7.9075 0.25321-0.64889 2.0226-2.4147 3.932-3.9242s3.7032-3.7312 3.9863-4.9372c0.46711-1.99 0.20397-2.3143-2.8479-3.5098-1.8494-0.72451-4.2726-1.9933-5.3847-2.8194-1.8046-1.3407-2.6308-1.1389-7.6812 1.8756-3.1125 1.8578-6.0976 4.1218-6.6337 5.0309-0.53613 0.9093-4.5603 4.4261-8.9425 7.8154-12.654 9.786-22.642 18.488-28.731 25.031-1.7561 1.8869-5.862 5.983-9.1244 9.1022s-6.6705 7.0674-7.5736 8.7737c-0.90314 1.7062-3.4026 4.5427-5.5545 6.3031s-5.0393 4.6965-6.4166 6.5246c-2.4278 3.2225-2.4258 3.4184 0.0646 6.4262 1.4128 1.7063 2.3108 3.2562 1.9954 3.4445-0.31522 0.18815-2.4952 0.09161-4.8446-0.21476l-4.2715-0.55669-4.863 5.9239c-2.6747 3.2582-6.7717 8.7635-9.1045 12.234-2.3328 3.4706-5.3281 7.5994-6.6562 9.1756-1.8389 2.1822-2.2172 3.7527-1.5865 6.5856 0.79329 3.5629 0.66465 3.8029-3.0456 5.6827-4.1244 2.0898-7.8237 6.2875-6.902 7.8317 1.5748 2.6383 7.8128 2.4925 8.4443-0.19736z"/>
      <path id="path3260" d="m843.22-147.53c0.49672-1.2247 0.35255-3.1705-0.32043-4.3241-0.97785-1.6773-0.78975-2.278 0.94008-2.998 1.1899-0.49536 3.8328-0.89645 5.8732-0.89147 5.0082 0.0122 8.3557-1.7989 13.097-7.0854 2.5517-2.8455 5.21-4.8846 7.398-5.6746 2.1185-0.76512 3.6399-1.9037 4.0071-2.9988 0.75892-2.2634 25.618-16.173 27.833-15.574 0.82717 0.22354 2.9722-0.46996 4.7668-1.5412 2.6764-1.5975 3.0748-2.2628 2.2167-3.7004-1.3147-2.2026-7.4065-2.0584-9.3891 0.22208-1.0427 1.1997-2.3371 1.3298-4.7486 0.47902-1.8234-0.64349-4.8906-0.84401-6.8158-0.44567-1.9254 0.39822-4.3567 0.60691-5.403 0.46363-1.0463-0.1432-4.0824 0.37401-6.7468 1.1494-2.6644 0.77541-6.2808 1.2007-8.0364 0.94495-1.7555-0.25579-3.9318-0.0233-4.836 0.5164-0.90434 0.5398-3.1648 1.0532-5.0233 1.1408-4.3397 0.20468-16.908 3.0077-18.077 4.0315-0.49276 0.43155-3.4379 1.2044-6.5446 1.7176-3.1068 0.51315-6.4251 1.3883-7.3741 1.9446-0.94966 0.5552-3.0314 1.0186-4.6274 1.0274-8.7026 0.0479-17.922 2.4225-23.469 6.045-0.80648 0.5268-3.471 2.2701-5.9209 3.8744-3.4188 2.2388-5.232 2.8036-7.7996 2.4296-2.1003-0.30608-6.0777 0.60354-10.688 2.444-4.0386 1.6122-8.9812 3.3912-10.984 3.9534-2.0024 0.56213-7.2072 2.8173-11.566 5.0114-4.3589 2.1941-9.0245 4.1734-10.368 4.3984-2.794 0.46792-12.116 9.3449-11.281 10.743 0.99344 1.6644 9.9959 2.7831 14.214 1.7665 3.3094-0.79748 4.6961-1.5995 6.1332-3.5467 1.5831-2.1448 2.1605-2.3815 3.9135-1.6047 1.1311 0.50119 4.7438 0.74496 8.0281 0.54158 6.6991-0.41473 11.839-0.0848 15.296 0.98176 1.28 0.39495 2.9544 0.34379 3.7208-0.1137 2.3577-1.4073 6.2147 0.44366 7.137 3.4249 0.96035 3.105 2.5989 2.6456 4.2477-1.1909 0.76396-1.7775 2.0273-2.7636 4.7014-3.6691 2.9743-1.0073 4.0763-0.81757 5.904 1.0164 1.6225 1.6279 3.975 2.2849 8.4623 2.3634 3.4182 0.0597 7.3293-0.22766 8.6912-0.63868s4.8325-0.30361 7.7123 0.23871c4.5713 0.8607 5.8447 0.62832 10.029-1.8299 2.7986-1.6437 5.169-3.7424 5.6963-5.0422z"/>
      <path id="path3258" d="m688.07-32.911c-0.24331-3.266-0.47072-3.6565-2.4382-4.1883-1.9678-0.53181-2.1118-0.21096-1.5445 3.4411 0.78156 5.0325 1.383 6.061 2.9852 5.1046 0.69629-0.41561 1.1452-2.3764 0.99765-4.3575z"/>
      <path id="path3256" d="m583.94 52.322c0.00086-1.3491-3.5437-5.169-4.3418-4.679-0.58263 0.35942-0.12704 5.9167 0.58343 7.107 0.59828 1.0023 3.7574-1.0387 3.7583-2.428z"/>
      <path id="path3254" d="m507.57 108.69c-0.29148-0.48832-0.91636-0.65722-1.3886-0.37533-0.47227 0.28189-0.62019 0.91207-0.32871 1.4004 0.29143 0.48824 0.91631 0.65714 1.3886 0.37525 0.47226-0.28189 0.62018-0.91207 0.32876-1.4003z"/>
      <path id="path3252" d="m841.02-66.265c-0.29147-0.48832-0.9163-0.65714-1.3886-0.37524-0.47227 0.28189-0.62024 0.91198-0.32876 1.4003 0.29143 0.48824 0.91631 0.65714 1.3886 0.37524 0.47227-0.28189 0.62019-0.91207 0.32876-1.4003z"/>
      <path id="path3250" d="m849.38-84.478c-1.2657-0.68138-1.4279-2.7796-0.26839-3.4717 1.0448-0.62365 2.4859 1.7752 1.8407 3.0643-0.27199 0.54329-0.97955 0.72677-1.5724 0.40748z"/>
      <path id="path3248" d="m952.13-145.16c-1.2974-0.9215-2.2671-2.0656-2.1551-2.5426 0.38469-1.6383 3.482-1.3965 4.5265 0.35339 1.6365 2.7417 0.23214 4.0383-2.3713 2.1892z"/>
      <path id="path3246" d="m878.58-59.148c3.5707-2.654 5.0336-5.626 3.9872-8.101-1.034-2.4456 1.8801-8.4461 6.6978-13.792 2.7678-3.071 2.9844-3.8538 1.7743-6.4116-0.86533-1.8292-0.90748-3.4554-0.11324-4.3692 0.69584-0.80036 0.99489-2.3597 0.66454-3.4651-0.34765-1.1635 0.13125-2.4467 1.1374-3.0472 1.1486-0.68561 1.4268-1.7704 0.82008-3.1987-0.76403-1.7992-0.36512-2.5119 2.3813-4.2538 2.0085-1.2734 3.3624-2.9065 3.4607-4.1728 0.0887-1.1442 1.1341-2.6609 2.3229-3.3705s2.2848-2.1766 2.4356-3.26c0.15075-1.0834 0.78035-2.272 1.3991-2.6413 1.4556-0.86884 0.62276-4.2022-1.6211-6.4874-2.3115-2.3541-0.94726-8.2199 2.0694-8.8979 2.3489-0.5279 6.3296 1.2558 9.1006 4.0779 1.6644 1.695 1.6088 2.3425-0.44555 5.1906-2.7248 3.7776-1.5218 5.6598 2.3197 3.6296 4.3591-2.3036 6.8329-2.4624 8.7027-0.55819 1.3606 1.3856 2.631 1.4748 5.4823 0.38449 2.0412-0.78046 4.8448-1.0514 6.2301-0.6019 1.3854 0.44926 3.416 0.28136 4.5125-0.37314 1.1818-0.7054 3.1117-0.62531 4.7384 0.19658 4.2636 2.154 13.111 2.3941 16.378 0.44443 2.9073-1.7353 7.2686-0.6314 9.0062 2.2796 0.83907 1.4057 3.867 1.2557 4.6098-0.22819 0.76548-1.5293-5.8516-11.314-7.4737-11.052-3.5505 0.57456-5.823-10.686-2.7897-13.823 1.8199-1.882 0.45276-4.1655-4.3587-7.2809-2.0881-1.3518-3.9913-3.2533-4.2295-4.2256-0.61823-2.5233-4.7629-3.3695-6.9322-1.4154-1.2263 1.1046-2.3905 1.2565-3.6492 0.476-1.0166-0.63024-2.5298-0.73931-3.3625-0.24226-0.83282 0.49711-4.1432 0.24935-7.3563-0.55068-5.5567-1.3833-5.971-1.3194-8.4806 1.3063-1.451 1.5184-3.1505 3.4662-3.7764 4.3286-1.0147 1.398-1.3078 1.1489-2.7029-2.2972-0.91722-2.2656-2.4382-4.4065-3.6755-5.1737-2.1206-1.3148-5.3831-0.27835-5.3843 1.7105-0.00067 1.0349-2.6929 3.7383-7.1311 7.1606-2.8946 2.2322-2.9771 3.1265-0.41409 4.4913 1.7379 0.92535 2.0943 1.5424 1.8608 3.2209-0.15892 1.1421-0.86511 2.4203-1.5693 2.8406-1.0248 0.61171-1.6295-0.0754-3.0302-3.4436l-1.7497-4.2078-8.094 5.1137c-5.7581 3.6378-8.2905 5.7526-8.7751 7.3277-1.1869 3.8578-5.7283 8.1965-14.492 13.846-9.9657 6.4235-14.14 9.8475-16.263 13.341-3.0869 5.0783-17.788 11.666-22.031 9.8724-2.6884-1.1366-8.857-0.43964-13.885 1.5688-3.246 1.2967-6.1399 0.12591-5.0536-2.0443 0.3745-0.74831-1.749-0.94422-5.3223-0.49129-3.27 0.41448-7.3606 0.32346-9.0901-0.20223-1.7295-0.52578-4.0012-0.44461-5.0481 0.18027-2.3148 1.3817-13.373-0.35366-17.149-2.6912-1.5054-0.93194-3.1385-2.5832-3.6293-3.6696-1.1804-2.6113-11.783-5.5102-14.413-3.9403-1.1343 0.67706-3.0983 0.58041-4.7054-0.23156-2.468-1.2469-3.264-1.0674-7.5596 1.7048-5.1994 3.3553-10.922 5.526-11.595 4.3983-0.23105-0.38708-2.1314-0.0315-4.223 0.79-2.8466 1.1181-4.3218 1.0741-5.8659-0.1754-1.8017-1.4577-2.5501-1.3515-5.9106 0.83906-2.3205 1.5128-4.3743 2.2247-5.1747 1.7937-1.0268-0.55266-1.8738 0.13982-3.7428 3.0598-1.9126 2.9878-3.2058 4.0262-6.2077 4.9846-4.442 1.4182-4.7362 1.8405-4.4025 6.32 0.17861 2.3978-0.38427 3.7653-1.9297 4.6878-3.3065 1.9736-5.5994 8.9742-3.8818 11.852 0.78146 1.3092 2.1862 2.5872 3.1219 2.8401 1.3422 0.36274 1.6982 0.97433 1.6879 2.9001-0.007 1.4233 0.90682 3.5 2.1935 4.9822 2.0536 2.3658 2.0264 2.9232-0.39117 8.0528-1.4286 3.031-2.4222 5.7913-2.2079 6.1342 1.1085 1.7733 7.1174 6.2162 8.1231 6.0059 0.63881-0.13359 0.84646-2.5818 0.46152-5.4405l-0.69986-5.1972 3.9464-1.5251c5.0818-1.9637 5.7882-1.9117 6.5026 0.47877 0.53535 1.7913 0.89922 1.7244 3.8442-0.7063 2.5234-2.0825 5.6648-3.1927 14.006-4.9494 5.9141-1.2456 11.489-1.8271 12.388-1.2922 1.78 1.0587 4.4377-0.06167 4.9839-2.1009 0.18845-0.70374 1.7191-1.8269 3.4016-2.4958 2.5984-1.0332 3.2795-0.84682 4.5236 1.2376 1.4888 2.4943 5.236 3.9334 5.65 2.1699 0.12506-0.5321-0.13629-2.4852-0.58071-4.3403-0.5242-2.1882-0.22336-3.8497 0.85661-4.7313 0.9156-0.74728 1.9694-2.8663 2.3417-4.709 0.37253-1.8427 1.3948-3.7785 2.2719-4.302 0.87704-0.5235 1.4609-1.6749 1.2976-2.5587-0.22718-1.2295 0.22324-1.6239 1.9185-1.6794 1.2184-0.0399 4.3282-1.1077 6.9105-2.3728 15.069-7.3827 26.082-9.8779 33.116-7.504 2.6834 0.90557 5.0846 1.9546 5.336 2.3312 0.25162 0.37667 1.5896-0.32796 2.9734-1.5658 3.3935-3.0351 5.6796-2.1089 8.1227 3.2909 1.0337 2.2849 2.0232 4.9317 2.1986 5.8816 0.19287 1.0431 1.531 2.0091 3.3786 2.4387 2.3717 0.5518 2.9712 1.0877 2.6667 2.3843-0.59525 2.5354 2.2641 6.5823 5.0432 7.1376 12.171 2.4325 15.984 4.0448 19.738 8.3462 3.1598 3.62 12.477 7.0042 13.937 5.0626 0.56771-0.75474 2.1592-2.21 3.5367-3.2337z"/>
      <path id="path3244" d="m882.45-52.463c0.00038-0.66253-0.81765-0.71603-1.8179-0.11898-1.0003 0.59705-1.3414 1.3425-0.7581 1.6566 0.58329 0.31403 1.4014 0.36761 1.8179 0.11898 0.41654-0.24863 0.75766-0.99413 0.7581-1.6566z"/>
      <path id="path3242" d="m1000.6-118.49c-0.3531-0.95021-1.4312-1.5998-2.3959-1.4438-2.1084 0.34124-3.2779 4.3239-1.544 5.2575 1.806 0.97238 4.6834-1.8129 3.9398-3.8137z"/>
      <path id="path3240" d="m673.48 31.031c-1.9712-0.79924-6.8242-5.0577-7.9905-7.0116-1.2754-2.1367 0.97307-6.4659 5.0789-9.7785 2.8537-2.3027 3.9572-2.6457 6.3923-1.9877 5.8862 1.5907 7.3024 8.6681 2.913 14.558-3.0893 4.1459-4.416 5.0213-6.3938 4.2196z"/>
      <path id="path3238" d="m1084.3-147.18c-0.1743-0.94351-0.7455-2.4333-1.2692-3.3107-1.022-1.7123 2.0795-6.8951 4.7384-7.9179 1.9003-0.73107 1.4845-3.5051-0.8875-5.9208-1.13-1.1508-3.3541-1.6543-6.1-1.3807-4.3557 0.43396-5.2793-0.37081-6.0026-5.2308-0.4308-2.8942-5.4501-3.6094-10.494-1.4952-3.3881 1.4201-4.9937 1.5637-6.0197 0.53862-0.9961-0.99511-1.8371-0.945-2.919 0.17387-1.2696 1.3128-1.7557 1.1764-2.9524-0.82849-1.1052-1.8516-2.1585-2.2784-4.6087-1.8678-3.2721 0.54836-5.1352-1.0653-4.4754-3.876 0.2822-1.2018-0.6835-1.7919-3.8688-2.3645-2.3347-0.41964-5.0686-0.98558-6.0755-1.2578-1.007-0.27205-2.15-0.30417-2.5402-0.0713-0.3902 0.23289-4.0398-0.56887-8.1101-1.7816-5.7481-1.7127-7.9733-1.8634-9.9643-0.67497-1.6006 0.95536-3.2403 1.1106-4.3651 0.41322-0.9908-0.6144-3.8072-0.91207-6.2587-0.66151-2.8784 0.29426-4.804-0.12549-5.4365-1.1851-0.53862-0.90238-0.59294-1.8714-0.12068-2.1533 1.6375-0.9774-0.55231-2.8485-4.467-3.817-2.1638-0.53535-4.5547-0.42878-5.313 0.23685-0.94133 0.82612-1.9659 0.60525-3.2287-0.69594-1.1132-1.147-2.4153-1.5286-3.2698-0.95827-4.8189 3.217-5.4708 3.9165-4.7603 5.1068 0.42699 0.71536 1.8248 1.2662 3.1064 1.2242 1.9525-0.0639 2.5895 0.54641 3.9312 3.7656 1.349 3.2369 2.2322 4.0738 5.6088 5.3137 5.3661 1.9706 10.093 2.2247 11.686 0.62797 0.71757-0.71946 2.8771-1.0077 4.7989-0.64049 3.4536 0.65965 3.4769 0.68728 2.0111 2.3734-1.8067 2.0785-1.3428 4.2137 1.8709 8.6116 3.1892 4.3645 6.2277 7.4207 9.3411 9.3954 1.3805 0.87561 2.7691 2.0204 3.0854 2.544 0.3135 0.52525 2.1334 1.3211 4.0376 1.7724 2.4247 0.57467 3.6699 1.4918 4.1552 3.0609 0.6517 2.107 4.1546 3.9606 5.7195 3.0265 0.363-0.21664 2.1462 0.91955 3.9629 2.5248 4.0509 3.5794 5.5045 3.5238 11.648-0.4446 2.6582-1.717 5.022-2.8052 5.2531-2.4181 0.231 0.387-0.1038 2.1395-0.7442 3.8942-0.6402 1.7548-1.0182 3.097-0.84 2.9827 0.1767-0.11709 2.0245-1.982 4.1025-4.1506 3.299-3.4427 4.0398-3.8723 5.8401-3.3858 1.1341 0.30648 2.5077 1.3041 3.0526 2.2169 1.5209 2.5482 2.805 2.0612 5.2836-2.0037 2.2283-3.6543 5.4126-5.4406 6.4877-3.6394 0.2991 0.50104-0.1042 1.5813-0.8963 2.4005-1.6688 1.7258-1.314 2.643 1.6282 4.2097 2.5395 1.3521 5.0794 0.10302 4.6387-2.2816z"/>
      <path id="path3236" d="m1094.5-149.42c-0.149-0.51801-0.8533-0.82001-1.5651-0.67114-0.7118 0.14894-0.8968 0.93656-0.411 1.7504 0.8974 1.5034 2.472 0.64348 1.9761-1.0794z"/>
      <path id="path3234" d="m477.43 219.26c0.21115-0.77925-0.1948-0.95247-1.0441-0.44552-0.76421 0.45615-2.1454 0.95171-3.0694 1.1012-1.2144 0.1965-1.3634 0.80214-0.52769 2.2022 0.94839 1.5889 1.4304 1.6196 2.724 0.17371 0.86446-0.96622 1.7272-2.3304 1.9172-3.0316z"/>
      <path id="path3232" d="m1110.5-154.8c0.016-3.0827-2.0582-4.6803-4.9719-3.8291-1.8535 0.54152-2.9137-0.0479-5.2421-2.9146-1.8802-2.3148-3.6921-3.568-5.0924-3.5221-2.5094 0.082-3.5586 1.5724-2.4339 3.4568 0.4292 0.71896 0.338 1.8831-0.2027 2.587-1.1 1.4321 0.01 4.044 1.3684 3.2309 0.5046-0.30117 1.2078 0.5535 1.661 2.0188 0.5854 1.8924 1.126 2.3381 2.118 1.746 1.7185-1.0257 9.5188-0.96019 10.143 0.0852 0.8697 1.457 2.6403-0.45098 2.6528-2.859z"/>
      <path id="path3230" d="m1148.7-110.82c-0.4371-0.73244-1.3744-0.98575-2.0828-0.56291s-0.9304 1.3681-0.4932 2.1005c0.4372 0.73244 1.3745 0.98575 2.0829 0.56291s0.9303-1.3681 0.4931-2.1005z"/>
      <path id="path3228" d="m1086.7-57.495c0.0004-0.61674-0.5093-1.1369-1.1328-1.1559-1.6788-0.05119-7.5448 5.1741-6.4626 5.7567 1.2413 0.66831 7.5946-3.18 7.5953-4.6011z"/>
      <path id="path3222" d="m1157.3-92.486c-0.2915-0.48832-0.3595-0.98946-0.1512-1.1138 0.2082-0.12429 0.8559 0.0309 1.4392 0.345 0.5834 0.31412 0.6514 0.81526 0.1512 1.1138-0.5 0.2985-1.1477 0.14332-1.4392-0.34501z"/>
      <path id="path3220" d="m1069.7-38.311c-0.1285-0.21535 0.01-0.86906 0.2975-1.4527 0.2921-0.58371 0.7837-0.63816 1.0924-0.12106 0.3087 0.51718 0.1747 1.1708-0.2975 1.4527-0.4723 0.28189-0.9638 0.33642-1.0924 0.12106z"/>
      <path id="path3218" d="m1179.3-72.519c-1.5095-7.7086-2.0448-8.7053-4.3921-8.1779-3.1413 0.70601-3.6405-1.066-0.5542-1.9676 1.9773-0.57767 2.3317-1.0021 1.4648-1.7545-0.6289-0.54579-1.8718-0.39636-2.7619 0.3322-2.1183 1.7337-4.0435 0.62749-3.7111-2.1326 1.0269-8.5296-3.5765-16.129-8.1395-13.437-1.565 0.92247-8.8856-3.0823-10.462-5.7242-0.598-1.0019-1.4737-1.591-1.946-1.3091-0.4723 0.28189-0.501 1.1118-0.064 1.8442 0.4372 0.73244 0.2152 1.6776-0.4932 2.1004-1.9113 1.1408-0.139 3.3144 2.1727 2.6644 2.638-0.74168 3.1574 0.36806 2.0705 4.4238-0.8722 3.2546-0.9768 3.3352-3.5889 2.7674-1.4797-0.32162-2.9821-1.0734-3.3386-1.6707-0.3564-0.5972-1.817-1.16-3.2458-1.2509-2.5178-0.15999-4.1671-1.7868-15.65-15.436-1.5318-1.8207-2.8287-2.4049-4.2809-1.9281-6.5915 2.1641-13.883 5.2547-17.524 7.4282-2.8111 1.6779-4.5604 2.1648-5.3875 1.4995-0.6738-0.54187-2.9408-0.32907-5.0378 0.47274-2.0971 0.80182-4.8918 1.0749-6.2106 0.60691-1.3188-0.46795-3.4239-0.23835-4.6781 0.51025-3.4978 2.0878-9.6529 2.5281-11.369 0.81345-0.9307-0.9298-2.2493-1.1133-3.3365-0.46434-1.8422 1.0996-1.2172 3.6027 0.9156 3.6678 2.0872 0.0636 2.7738 2.5587 0.9961 3.6198-1.0968 0.65465-1.3641 1.6169-0.7397 2.663 1.3949 2.337-1.1504 8.1852-6.0623 13.93-0.696 0.81395-0.9912 2.3971-0.6562 3.5184 0.3351 1.1211 0.055 2.3692-0.6226 2.7736-0.6774 0.40433-0.9673 2.4368-0.6443 4.5166s0.3407 4.274 0.039 4.876c-0.9385 1.875 1.3424 2.3154 2.4188 0.46685 1.2239-2.1019 4.6408-2.2996 5.8126-0.33639 1.2846 2.1521-0.3983 5.3472-3.958 7.5144-2.6246 1.598-3.0118 2.2709-2.1433 3.7258 0.7024 1.1768 0.4873 2.1173-0.6377 2.7888-2.4753 1.4775-2.2628 6.3717 0.442 10.18l2.298 3.2357 5.2213-2.9592c7.7438-4.3888 8.0487-4.888 5.4278-8.9175-1.8334-2.8188-2.666-3.3339-4.515-2.7937-2.3481 0.68601-4.0923-0.87892-3.1276-2.8062 0.3034-0.60631 2.2371-2.2745 4.2969-3.7073 4.6095-3.206 5.5163-5.7675 2.1772-6.1496-3.869-0.4426-2.6312-2.1881 4.3444-6.1265 5.3256-3.0068 7.397-3.6726 10.365-3.3312 3.5821 0.41212 3.805 0.30261 6.4935-3.1858 2.1439-2.7819 3.461-3.7243 5.7269-4.0985 1.6186-0.26711 3.991-1.1114 5.2721-1.876 1.2811-0.76465 3.4083-1.0074 4.727-0.53938 1.3188 0.4679 4.2526 0.13933 6.5195-0.73023 2.2668-0.86964 5.2115-1.4868 6.5437-1.3716 1.3322 0.11509 2.9514-0.10655 3.5984-0.49269 0.6468-0.38609 2.6355-0.48946 4.4191-0.22963 1.7838 0.25979 3.9358 0.059 4.7824-0.44628 0.8466-0.50531 2.8128-0.40672 4.3693 0.21914 1.5566 0.62586 4.6676 0.72571 6.9134 0.22197 2.2459-0.50381 5.4371-0.84284 7.0919-0.75339 1.6547 0.0894 3.9922 0.12387 5.1943 0.0765 3.9598-0.15583 4.4685 1.5617 1.0644 3.5936-2.4302 1.4505-4.0384 1.5812-7.0045 0.56869-3.9296-1.3412-6.3079-0.76641-6.8781 1.6625-0.2066 0.87946-2.0772 1.7834-5.2959 2.559-2.7371 0.65956-5.397 1.4528-5.9108 1.7628-1.4891 0.90045 6.6711 1.9412 8.2406 1.0525 2.1914-1.2405 4.8133 0.19543 5.7226 3.1348 0.8047 2.602 2.6173 2.8499 2.6189 0.35801 0.0004-0.66244 1.1143-1.8692 2.4754-2.6816 1.3611-0.81242 2.475-1.9141 2.4753-2.4484 0.0004-0.5341 1.4756-1.6263 3.2784-2.4271 3.626-1.6106 5.2494-0.25822 4.8468 4.0375-0.4655 4.966 4.0039 9.3148 8.2459 8.0235 3.5856-1.0915 4.1384-2.1934 3.2856-6.5488z"/>
      <path id="path3214" d="m1243.4-55.475c-0.1285-0.21528-0.6201-0.16087-1.0924 0.12102-0.4722 0.28189-0.6061 0.93565-0.2975 1.4527 0.3087 0.51714 0.8002 0.46263 1.0924-0.12101 0.2921-0.58366 0.426-1.2374 0.2975-1.4527z"/>
      <path id="path3198" d="m472.87 194.94c-0.85906-1.4392-0.32156-7.6267 0.77191-8.8845 0.67737-0.7792 1.0092-1.7893 0.73735-2.2447-0.27179-0.45535-0.12088-1.0509 0.3355-1.3233 1.3232-0.78981 1.1145 7.3722-0.26394 10.321-0.68915 1.4742-1.4004 2.4332-1.5808 2.131z"/>
      <path id="path3194" d="m1232.9-96.78c-1.239-1.027-2.0656-2.442-1.8368-3.1444 0.2936-0.90172 1.2169-0.63199 3.1419 0.91799 2.6961 2.1708 3.5589 4.0936 1.8369 4.0936-0.4891 0-1.903-0.8402-3.142-1.8672z"/>
      <path id="path3192" d="m1240.6-90.477c-1.2147-1.2434-0.691-2.3338 0.8333-1.735 0.825 0.32408 1.5 1.0006 1.5 1.5033 0 1.0732-1.3776 1.21-2.3333 0.23175z"/>
      <path id="path3190" d="m1244.4-86.791c-1.1726-1.9421 0.5376-2.4214 2.2792-0.63864 1.5589 1.5957 1.5617 1.7303 0.035 1.7303-0.9104 0-1.9519-0.49124-2.3144-1.0917z"/>
      <path id="path3188" d="m1259.4-73.597c-4.908-4.0676-6.7814-6.9842-4.4862-6.9842 0.6382 0 3.6552 2.5335 6.7045 5.63 6.4456 6.5455 5.0634 7.3894-2.2183 1.3543z"/>
      <path id="path3186" d="m1194.9-64.715c0-0.84449 0.1769-1.5354 0.393-1.5354 0.2162 0 0.652 0.69095 0.9686 1.5354 0.3166 0.84449 0.1398 1.5354-0.393 1.5354-0.5327 0-0.9686-0.69095-0.9686-1.5354z"/>
      <path id="path3184" d="m1277-55.889c-2.8238-0.80774-4.0133-3.1966-1.5917-3.1966 2.1946 0 5.5176 1.8712 5.5176 3.1069 0 1.0921-0.3903 1.101-3.9259 0.09008z"/>
      <path id="path3182" d="m1284.4-48.025c-3.5263-2.0468-4.8629-5.9423-2.039-5.9423 1.7723 0 5.539 3.9599 5.539 5.823 0 1.6241-0.8573 1.6533-3.5 0.11925z"/>
      <path id="path3180" d="m1295.4-34.393c-2.2283-0.48755-3.03-1.2639-3.1167-3.018-0.064-1.299-0.6266-2.8838-1.25-3.5218-1.3604-1.3925-1.5106-4.8452-0.2108-4.8452 1.0506 0 10.078 10.299 10.078 11.498 0 0.87438-1.0881 0.85196-5.5-0.11332z"/>
      <path id="path3178" d="m1230.6-20.842c-0.799-0.81788 0.1041-2.4164 1.3651-2.4164 0.5176 0 0.941 0.69095 0.941 1.5354 0 1.583-1.18 2.0336-2.3061 0.88093z"/>
      <path id="path3176" d="m1244.3-11.454c-1.0676-0.82658-1.4337-1.5175-0.8135-1.5354 0.6201-0.0174 1.6877 0.6584 2.3724 1.5029 1.5808 1.9498 0.9348 1.9633-1.5589 0.03276z"/>
      <path id="path3174" d="m1203.9-10.914c0-0.52983 0.45-1.2479 1-1.5959 0.55-0.34793 1 0.08496 1 0.96323 0 0.87776-0.45 1.5958-1 1.5958s-1-0.4334-1-0.96313z"/>
      <path id="path3172" d="m618.23-7.461c-0.8812-2.3509 0.993-3.7253 4.0196-2.9477 3.1302 0.80416 3.3796 2.0301 0.7103 3.4923-2.6971 1.4776-4.0293 1.3243-4.7299-0.54457z"/>
      <path id="path3170" d="m602.15-1.4165c-2.0447-0.8446-1.4287-2.1252 1.368-2.8436 3.2059-0.82361 4.0808-0.10922 2.4021 1.9614-1.3245 1.6336-1.7244 1.7272-3.7701 0.88226z"/>
      <path id="path3168" d="m1210.6 1.6499c-1.0204-1.0444-0.7924-4.4358 0.2981-4.4358 0.8911 0 3.0352 3.2065 3.0352 4.5391 0 0.80539-2.5219 0.72729-3.3333-0.10328z"/>
      <path id="path3166" d="m1277.4 76.989c-0.3626-0.60046-0.4447-1.3113-0.1826-1.5796 0.2622-0.26829 0.7431 0.22295 1.0688 1.0917 0.6762 1.8037 0.1 2.1211-0.8862 0.48786z"/>
      <path id="path3164" d="m1282.2 85.714c-0.9303-2.4815 0.3678-2.9295 1.6091-0.55532 0.7739 1.4804 0.7892 2.1349 0.05 2.1349-0.5866 0-1.333-0.71081-1.6587-1.5796z"/>
      <path id="path3162" d="m1339 95.056c-0.043-1.0791 0.193-1.6837 0.5253-1.3435 0.3323 0.34015 0.3678 1.223 0.079 1.9619-0.3192 0.81665-0.5562 0.57405-0.6042-0.61837z"/>
      <path id="path3160" d="m1287.9 95.357c0-1.8151 0.2468-1.9629 1.5-0.89834 0.825 0.70088 1.5 1.6785 1.5 2.1726 0 0.494-0.675 0.89823-1.5 0.89823-0.8622 0-1.5-0.92372-1.5-2.1725z"/>
      <path id="path3158" d="m1336.9 102.2c0-0.87776 0.45-1.5959 1-1.5959s1 0.43351 1 0.96324c0 0.52983-0.45 1.2479-1 1.5958-0.55 0.34804-1-0.086-1-0.96313z"/>
      <path id="path3156" d="m1348.9 115.83c0-3.5248 1.9384-8.0599 3.4449-8.0599 0.6181 0 1.9163 1.3732 2.8848 3.0515 2.2371 3.8766 0.9502 6.7601-3.302 7.399-2.7507 0.41325-3.0277 0.19456-3.0277-2.3906z"/>
      <path id="path3154" d="m1393.9 138.47c0-0.56299 0.1984-1.0236 0.441-1.0236 0.2425 0 0.7191 0.46064 1.059 1.0236 0.3399 0.563 0.1415 1.0236-0.441 1.0236-0.5824 0-1.059-0.46063-1.059-1.0236z"/>
      <path id="path3152" d="m1399.7 161.34c-1.0025-1.1372-1.3764-2.4628-0.9117-3.2324 1.0515-1.7416 3.4179 1.0419 2.9437 3.4625-0.2982 1.5221-0.5084 1.4983-2.032-0.23012z"/>
      <path id="path3150" d="m1402.4 176.28c-0.3626-0.60045-0.419-1.3375-0.1256-1.6379 0.7163-0.73324 2.6667 0.55872 2.6667 1.7665 0 1.3082-1.7264 1.2208-2.5411-0.12852z"/>
      <path id="path3148" d="m621.9 183.04c0-1.5931 3.3601-3.9325 4.2864-2.9844 0.6391 0.65428-2.3575 4.4838-3.5086 4.4838-0.4278 0-0.7778-0.67474-0.7778-1.4994z"/>
      <path id="path3146" d="m581.71 174.56c-0.2126-1.13-1.2498-1.7914-2.8096-1.7914s-2.597 0.6613-2.8096 1.7914c-0.2633 1.3996 0.3511 1.7914 2.8096 1.7914s3.073-0.39175 2.8096-1.7914z"/>
      <path id="path3144" d="m547.02 181.73c-0.8464-1.5481-1.0995-1.4345-2.172 0.97513-0.6677 1.5-0.8952 3.5629-0.5054 4.584 0.6249 1.6374 0.8813 1.5222 2.1719-0.97512 1.0081-1.9507 1.1654-3.377 0.5055-4.584z"/>
      <path id="path3132" d="m591.67 337.06c0.2177-0.66856-0.3166-1.2156-1.1875-1.2156-0.8708 0-1.5833 0.72934-1.5833 1.6207 0 1.8077 2.1528 1.4928 2.7708-0.40518zm36.248-51.343c-0.8229-1.015-0.814-1.5666 0.034-2.103 0.6926-0.43817 0.9092-1.9562 0.5449-3.8204-0.3452-1.7671-0.1065-3.7074 0.5569-4.5256 0.8542-1.0535 0.8663-1.7342 0.046-2.5739-1.4593-1.4938-4.4172 0.87775-3.968 3.1815 0.1747 0.89627-0.5935 2.403-1.7071 3.3483-1.6237 1.3781-1.7772 1.9765-0.7749 3.0197 0.6875 0.71556 1.25 2.1002 1.25 3.0769 0 0.97675 0.4861 3.0726 1.0801 4.6575l1.0802 2.8816 1.4868-2.8834c1.1086-2.1498 1.203-3.2335 0.3713-4.2593zm1.3052-18.704c0.7711-1.3406-1.2034-5.374-2.6309-5.374-1.4988 0-3.9274 4.5367-2.9591 5.5278 0.856 0.87622 5.0641 0.76046 5.59-0.15378zm0.073-9.0491c0.8191-2.185-0.099-3.4903-2.4553-3.4903-2.0348 0-2.3428 0.80793-1.334 3.499 0.7836 2.0904 3.0043 2.0853 3.7893-0.008zm-63.432-6.4939c1.6558-3.167 1.1947-5.6143-1.279-6.7869-4.5848-2.1736-5.9277 0.26846-3.1601 5.7468 1.7758 3.5152 2.9956 3.801 4.4391 1.0401zm64.535-6.2091c-0.3399-0.56299-1.293-1.0236-2.118-1.0236s-1.2219 0.46063-0.882 1.0236c0.3399 0.563 1.293 1.0236 2.118 1.0236s1.2219-0.46063 0.882-1.0236zm-80.908 74.55c-0.41247-0.25049-2.0629-1.4327-3.6674-2.6273-3.4775-2.5888-3.7262-2.4922-4.0328 1.5682l-0.23721 3.1401 3.6074-0.42046c4.0757-0.475 5.4283-0.99373 4.33-1.6605zm-17.745-17.361c2.0837-2.9468 2.5921-4.599 1.8155-5.9-1.3867-2.3232-2.7765-1.494-2.5924 1.5469 0.11765 1.9431-0.44584 2.5777-3.1583 3.5573-3.0786 1.1118-3.2081 1.3488-1.9178 3.5105 1.6588 2.779 2.1192 2.5655 5.853-2.7147zm8.1393-36.279c-0.2742-0.45939-0.88504-0.60476-1.3573-0.32287-0.47226 0.2819-0.48687 1.1354-0.0325 1.8966 0.45441 0.7613 1.0651 0.9065 1.3573 0.32287 0.29216-0.58363 0.30677-1.4372 0.0325-1.8966z"/>
      <path id="path3129" d="m477.91 286.39c0.026 1.689 0.7099 3.968 1.52 5.0644 0.8101 1.0965 1.2236 2.7976 0.9189 3.7804-0.6161 1.9868 2.5285 8.9784 4.9715 11.054 0.8652 0.73501 1.5731 2.1449 1.5731 3.133 0 0.98811 0.6208 2.3239 1.3795 2.9685 0.7587 0.64455 1.6558 2.5862 1.9935 4.3148 0.3378 1.7286 2.0098 4.4775 3.7157 6.1087 2.8631 2.7378 3.2651 2.8485 5.2289 1.4405 1.1701-0.83891 2.9007-1.5253 3.8459-1.5253 2.0017 0 3.4958 1.9763 2.2146 2.9294-0.4829 0.3593-1.5192 1.4884-2.3027 2.509-1.308 1.7038-1.2227 1.8038 1.043 1.2217 2.748-0.70599 4.8521 1.0661 10.882 9.1647 1.925 2.5856 4.7375 6.2469 6.25 8.1363s2.75 3.9925 2.75 4.6737c0 1.288 1.8889 4.0079 8.2732 11.912 4.5777 5.6678 7.154 11.105 7.5745 15.985 0.1738 2.0175 3.4299 4.4399 7.2628 5.4035 2.4386 0.61305 2.655 0.37055 3.2885-3.6846 0.4551-2.9129 0.2889-4.587-0.5052-5.0893-0.8348-0.5282-1.2152-6.2806-1.2918-19.534-0.1153-19.947-0.6063-22.346-5.4996-26.879-1.2899-1.195-2.1024-3.1952-2.1024-5.176 0-1.7756-0.6607-4.1226-1.4682-5.2154s-1.4825-2.872-1.5-3.9536c-0.017-1.0817-0.7862-2.8199-1.7082-3.8628-1.1664-1.3194-1.3582-2.2218-0.6306-2.9666 1.4746-1.5094 0.3823-10.267-1.5648-12.546-1.5117-1.769-1.4278-2.0476 1.2845-4.2614 2.7088-2.211 2.8189-2.5741 1.6531-5.455-0.6869-1.6975-1.9008-3.3424-2.6976-3.6554-1.2455-0.4892-1.2549-0.94785-0.067-3.2683 1.1599-2.2662 1.1682-3.3334 0.051-6.6517-1.8838-5.5969 0.7063-12.719 5.8748-16.155 4.7036-3.1266 6.0938-8.0104 2.8985-10.182-1.3943-0.94765-2.1257-2.5188-2.1257-4.5661 0-1.7167-0.7191-3.9347-1.598-4.9288-1.7446-1.9733-1.143-3.9837 1.1922-3.9837 1.1865 0 1.2571-0.41894 0.36-2.1349-0.6139-1.1742-0.9673-2.2106-0.7852-2.3032 5.4778-2.784 6.2536-5.3157 1.9271-6.2884l-3.0152-0.67791 1.9553-5.3497c1.0755-2.9423 2.103-8.1196 2.2833-11.505 0.1803-3.3856 0.6613-6.7077 1.0687-7.3826 1.1844-1.9616-0.3484-5.3032-2.4325-5.3032-1.0503 0-2.6877 1.2667-3.6387 2.815-0.951 1.5482-2.9864 4.3281-4.5231 6.1774-3.1378 3.7763-3.4765 6.0706-1.3257 8.9814 2.3514 3.1823 1.8383 4.5446-1.7182 4.5617-3.7734 0.0182-5.1293 0.78201-6.0854 3.428-0.5087 1.408-1.3768 1.7738-3.3114 1.3952-3.7171-0.72737-8.1619 2.2892-14.274 9.6872-5.5036 6.6618-9.1801 9.3064-11.61 8.3518-0.9081-0.3567-1.4691 0.0374-1.4691 1.0319 0 0.88492-0.8856 2.0941-1.968 2.6871-3.0029 1.6451-9.032 10.25-9.032 12.891 0 1.4722-0.7712 2.5934-4.0184 15.559-1.431 13.37-0.99085 15.43-0.96495 17.119z"/>
      <path id="path3127" d="m490.15 209.45c-1.8897-0.78055-1.4992-3.892 0.75-5.9756 1.1-1.019 2-3.1361 2-4.7046 0-3.2781 0.955-4.0974 6.498-5.5747 3.4733-0.92572 4.0424-1.4866 4.3078-4.246 0.2044-2.1264 0.9496-3.3517 2.25-3.6998 1.4822-0.39677 1.9442-1.4174 1.9442-4.2948 0-2.9135 0.4562-3.8965 2-4.3097 1.1-0.29445 2.0219-0.5968 2.0486-0.67189 0.1778-0.50007 2.0747-21.571 2.316-25.727 0.3482-5.9976 1.5587-12.669 2.6929-14.842 0.488-0.93487 0.2388-2.1708-0.6374-3.1619-0.875-0.98969-1.5053-4.1085-1.609-7.9611-0.1053-3.9082-0.6924-6.7773-1.5331-7.4915-0.8601-0.7307-1.2841-2.9171-1.1498-5.9297 0.117-2.6248-0.172-5.4096-0.6422-6.1884-0.4702-0.77877-1.4046-4.6621-2.0765-8.6296-1.0359-6.1168-1.0006-7.4675 0.2324-8.8838 0.7997-0.91871 1.9152-3.3802 2.479-5.4701 0.5637-2.0898 1.3296-3.4882 1.702-3.1075 0.3724 0.38069 0.9411 6.0666 1.2637 12.635 0.6483 13.201 2.3733 20.65 6.9134 29.857 4.7911 9.7153 6.087 16.356 6.0923 31.221 0 7.3189-0.4416 14.689-0.987 16.378-2.6096 8.0803-4.3202 12.169-6.3434 15.163-4.2013 6.2174-14.283 16.23-18.762 18.633-2.475 1.328-5.8075 3.5948-7.4055 5.0374-1.5981 1.4426-2.9481 2.5865-3 2.5421-0.052-0.0444-0.657-0.31314-1.3445-0.59711z"/>
      <path id="path3125" d="m573.37 563.62c-2.538-1.4174-2.8726-1.8618-1.8577-2.4675 1.0816-0.64553 6.1052 1.1142 6.8782 2.4094 0.89046 1.492-2.3853 1.5297-5.0205 0.0582zm85.159 50.123c2.4717-4.6485 1.7706-5.8537-3.0492-5.2423-2.9052 0.36856-4.1831 1.1755-5.3819 3.3984-0.93732 1.7381-2.0343 2.6728-2.7168 2.315-2.9298-1.5357-4.3999-0.53646-4.4126 2.999-0.0154 4.2826 4.3754 8.2738 8.7622 7.9651 2.5201-0.17736 2.9447-0.61696 3.8324-3.9672 0.54908-2.0722 1.8837-5.4328 2.9659-7.4681zm-12.91-8.4492c-0.42297-0.22811-1.9731-0.0103-3.4446 0.48396-2.2522 0.75641-2.5365 1.1324-1.796 2.3749 0.53296 0.89435 1.5396 1.355 2.5535 1.1686 1.8632-0.34254 3.8893-3.3791 2.6871-4.0275zm-1.7486-12.887c-1.3143-0.25851-3.462-0.93186-4.7728-1.4964-3.1593-1.3608-5.6698 1.9582-4.2859 5.6661 0.541 1.4495 0.4752 3.5783-0.14618 4.7305-0.9827 1.8222-0.82665 2.1001 1.1983 2.1344 1.6804 0.0285 2.8226-0.86815 4.1053-3.2227 0.97886-1.7934 2.4947-3.6421 3.3714-4.1066 2.8963-1.5343 3.1335-3.1931 0.52984-3.7052zm-6.515-16.565c-0.70125-0.37818-4.7146 0.55154-8.9186 2.066-4.2039 1.5145-8.0557 2.2845-8.5595 1.7111-1.4202-1.6166-2.3635-0.88447-2.7253 2.1151-0.49337 4.0896-3.4561 4.5266-9.1475 1.3493-5.299-2.9577-6.564-5.1864-3.7971-6.6867 0.99523-0.5397 2.5122-0.60606 3.3712-0.1476 1.9012 1.0139 5.1466-0.71396 4.2295-2.2526-0.34635-0.58126-1.5802-1.2462-2.7416-1.4777-1.2084-0.24081-1.8951-0.82287-1.6053-1.3604 0.28328-0.52529-1.2809-1.9035-3.548-3.1261-2.8243-1.5231-4.7118-3.4029-6.2204-6.195-3.8826-7.1859-7.4714-7.3017-14.439-0.46625-2.9034 2.8483-3.1135 3.3513-2.1826 5.2271 0.5664 1.1414 2.7751 3.3628 4.9081 4.9362 2.1331 1.5736 5.3872 4.9639 7.2315 7.5341 4.1975 5.8499 9.9365 9.3886 11.919 7.3492 1.9175-1.9727 8.6723 1.3036 7.4306 3.6041-0.45714 0.84701-0.45519 1.7428 0.004 1.9906 0.45955 0.24783 1.32 1.0021 1.9121 1.676 0.78876 0.8979 2.1772 0.2043 5.1946-2.5953 2.2649-2.1013 5.6206-4.7922 7.4569-5.9797 1.8364-1.1875 3.6921-2.8142 4.1239-3.6149 0.4318-0.80069 2.0947-1.9566 3.6954-2.5685 3.4766-1.3292 4.1256-2.1615 2.408-3.0878zm-26.61 16.326c-0.22067-0.119-0.73432 0.40112-1.1413 1.1558-0.40703 0.75474-0.18963 1.3479 0.48298 1.3181 1.1114-0.0491 1.6189-1.9559 0.65833-2.4739z"/>
      <path id="path3117" d="m514.14 517.47c-1.0414-1.5482-2.388-4.1969-2.9925-5.8859-1.3447-3.7576-2.6627-11.497-1.8109-10.634 0.9479 0.96109 8.5607 17.312 8.5607 18.387 0 1.8478-1.8901 0.90837-3.7573-1.8675z"/>
      <path id="path3115" d="m709.32 684.91c-0.16386-0.72177 0.21728-1.6198 0.84696-1.9956 0.62968-0.37581 1.601-0.28497 2.1585 0.20188 0.60296 0.52655 0.25981 1.335-0.84696 1.9956-1.1068 0.66055-1.9812 0.57878-2.1585-0.20187zm-8.1729-5.7913c-1.9665-0.52099-3.3601-2.5245-2.2265-3.201 1.2794-0.76361 5.1708 0.57897 5.1646 1.782-0.008 1.4896-0.95144 1.9454-2.9381 1.419zm10.66-22.095c-0.65663-0.52458-3.1752-3.7152-5.5968-7.0904-4.7068-6.5602-10.19-12.855-13.453-15.444-1.6299-1.2934-1.747-1.8567-0.62575-3.0102 0.80948-0.833 0.95486-2.5994 0.35188-4.2767-0.565-1.5717-0.67953-3.065-0.25448-3.3187 0.93417-0.55754 5.0962 3.9075 5.0882 5.4585-0.003 0.60584 2.547 5.7563 5.6667 11.446 4.4679 8.1477 6.287 10.734 8.5668 12.179 2.7762 1.7597 3.683 3.678 2.1664 4.5832-0.39389 0.23508-1.2534-0.002-1.91-0.52623zm-27.509-55.231c-2.0028-1.6-3.0542-6.242-1.9752-8.7202 1.7162-3.9413 0.41653-7.6086-3.2582-9.1935-1.766-0.76176-3.4662-1.8126-3.7781-2.3351-0.31188-0.52256-2.047-1.5885-3.8557-2.3686-3.9956-1.7232-5.2594-4.5737-2.8848-6.5062 1.9104-1.5545 1.0352-4.4091-0.98251-3.2049-2.3682 1.4134-3.2165-0.34825-2.4121-5.0093 0.87179-5.052-0.67714-7.6656-4.4602-7.5259-1.1171 0.0412-5.3671-2.6519-9.4444-5.9849-6.6404-5.4282-8.3929-6.2998-16.814-8.3616-5.1703-1.266-11.263-2.1318-13.539-1.924-4.6671 0.42612-13.082-1.9275-14.324-4.0065-0.45101-0.75491-2.5029-1.558-4.5597-1.7846-2.0568-0.22667-4.0319-0.90176-4.389-1.5002-0.35718-0.59846-2.648-2.0315-5.0907-3.1845-4.7468-2.2405-7.5203-4.2895-15.348-11.338-2.7207-2.45-5.4597-4.4678-6.0868-4.4841-1.4192-0.0369-2.3878-1.5284-1.3822-2.1286 0.69709-0.41604 19.953 11.709 20.77 13.079 0.57606 0.96521 11.946 5.6972 16.627 6.92 9.2666 2.4206 15.052 3.5331 15.862 3.05 1.5255-0.91044 14.705 2.3334 23.621 5.8138 9.3608 3.6541 22.155 11.667 27.816 17.421 5.63 5.7222 13.076 22.567 12.725 28.789-0.10457 1.8562 0.06 5.7736 0.36592 8.7054 0.55499 5.32-0.77608 7.723-3.2037 5.7837zm13.562 61.817c-1.83-0.98693-2.3312-0.92873-1.9639 0.22793 0.27121 0.85408 1.2634 1.6608 2.2048 1.7928 2.6055 0.36497 2.497-0.54414-0.24093-2.0207zm10.683-22.642c-0.50051-0.26992-1.2304 0.10335-1.622 0.82949s-0.30249 1.5411 0.19801 1.811c0.50051 0.26991 1.2304-0.10335 1.622-0.82949s0.30249-1.5411-0.19801-1.811z"/>
      <path id="path3113" d="m694.9 666.67c0-0.563 0.45-1.0236 1-1.0236s1 0.46063 1 1.0236c0 0.56299-0.45 1.0236-1 1.0236s-1-0.46064-1-1.0236z"/>
      <path id="path3111" d="m643.45 450.47c-2.5145-1.9468-5.5589-1.929-5.5589 0.0326 0 1.0976 1.0692 1.5261 3.75 1.5029 3.5142-0.0307 3.6279-0.12703 1.8089-1.5354z"/>
      <path id="path3109" d="m629.97 454.51c1.1552-1.4249 0.9663-1.5808-1.5504-1.2795-1.5763 0.18855-3.0507 0.9187-3.2764 1.6224-0.5963 1.8587 3.2641 1.5845 4.8268-0.34292z"/>
      <path id="path3107" d="m730.7 687.96c1.9069-1.952 1.3974-3.0662-1.05-2.2962-2.8897 0.90929-3.0855 1.1172-2.2911 2.4328 0.8583 1.4215 1.8588 1.3807 3.3411-0.13665zm126.48 20.949c0.244 2.1988-1.175 2.2752-3.151 0.1697-2.2651-2.4135-2.0601-3.5243 0.5629-3.0496 2.0694 0.3746 2.3439 0.6801 2.5881 2.8799zm-13.041-11.19c-1.6364 1.9041-3.7433 0.9229-4.5187-2.1043-0.8019-3.1307 0.1525-3.9394 2.7192-2.3036 2.5934 1.6527 3.1003 2.8942 1.7995 4.4079zm48.122 38.178c-4.4175-2.591-8.5959-4.6893-9.2853-4.663-0.6894 0.026-2.6361-1.411-4.3259-3.1939-2.5873-2.73-3.6235-3.2635-6.5635-3.3796-1.9202-0.076-5.4512-1.2874-7.8469-2.6925s-4.5345-2.25-4.7529-1.8775c-0.2185 0.3725-1.4992 0.7246-2.8457 0.7824-2.087 0.09-2.719-0.425-4.28-3.4851-1.3555-2.6568-2.6774-3.8882-5.0853-4.7368-2.3964-0.8447-3.7417-2.0891-5.1066-4.7243-1.0193-1.9675-2.9014-4.1942-4.1826-4.9481-2.7737-1.6269-7.8984-2.3008-9.7953-1.28-2.2238 1.1966-4.6933-0.9436-3.7514-3.2512 1.0468-2.5647-0.7035-6.398-2.3031-5.044-1.5023 1.2715-7.6763 0.8687-8.8024-0.5742-0.5174-0.6632-2.0224-1.3525-3.3442-1.5319-1.3219-0.1793-3.6094-0.7161-5.0833-1.1928-1.6682-0.5395-3.0228-0.2846-3.5884 0.6752-1.5976 2.7041-7.6294 5.3579-11.546 5.0738-2.0855-0.1511-4.765 0.4278-5.9546 1.2866-1.281 0.9247-2.9071 1.1251-3.9875 0.4914-1.0833-0.6353-2.4174-0.4684-3.2841 0.4109-0.9751 0.9893-4.1991 1.1333-9.7102 0.4337-4.5378-0.5759-8.8156-0.9731-9.5063-0.8827-0.6906 0.09-3.0902-0.6105-5.3324-1.5575s-5.0531-1.4498-6.2464-1.1174c-1.9691 0.5484-2.1267 0.9352-1.7055 4.1857 0.2552 1.9698 0.3095 4.7045 0.1207 6.077-0.3065 2.2271 0.2681 2.8542 5.3415 5.8298 3.1267 1.8338 6.548 3.3606 7.603 3.3928 1.0551 0.032 6.0748 1.8666 11.155 4.0762 14.669 6.3804 27.104 10.946 35.771 13.134 2.4993 0.6309 8.066 2.2582 12.37 3.6162 4.3045 1.358 9.4057 2.4448 11.336 2.415 1.9303-0.03 5.6197 0.7957 8.1986 1.8345 2.5788 1.0387 6.5423 2.1563 8.8077 2.4834 3.9932 0.5769 4.164 0.4808 5.6016-3.15 0.8155-2.0597 1.7418-3.5929 2.0586-3.4071 0.3167 0.1857 1.2814 2.143 2.1438 4.3497l1.5682 4.0121 7.5333 1.4109c4.1434 0.7761 10.941 1.7171 15.106 2.0913 4.1649 0.3741 9.2258 1.012 11.247 1.4173 2.798 0.5614 4.3566 0.137 6.5361-1.7795 20.867-5.6756 17.34 1.4923-4.2823-11.011zm1.2534 42.796c-0.28767 0.4905 0.0821 1.2468 0.82169 1.6806 0.73966 0.4338 1.3403 0.2467 1.3348-0.4158-0.005-0.6625-0.37526-1.4188-0.82164-1.6806-0.44647-0.2619-1.0471-0.075-1.3348 0.4158z"/>
      <path id="path3103" d="m946.15 723.78c0.3914-0.64837-0.032-1.7357-0.941-2.416-3.4531-2.5847-0.4436-14.349 3.8472-15.039 2.1261-0.34209 6.5825 0.99425 10.184 3.054 4.2083 2.4066 7.1498 1.5898 8.7956-2.4423 1.7875-4.3792 1.398-5.2502-3.2336-7.2311-2.6117-1.1171-3.22-1.7974-2.3779-2.6594 0.6224-0.6371 1.1316-2.1439 1.1316-3.3484 0-1.3714 0.9828-2.6484 2.6292-3.4162 1.4461-0.67447 2.3763-1.4853 2.067-1.8018-0.7798-0.79833-7.8495 1.6256-9.7936 3.3579-0.8786 0.78287-4.2536 1.761-7.5 2.1738-5.484 0.6972-5.925 0.95003-6.219 3.5654-0.194 1.726-0.9184 2.815-1.8725 2.815-1.2638 0-1.3242-0.2859-0.3217-1.5224 1.77-2.1831 0.6195-4.2843-2.66-4.8582-1.5562-0.27239-3.5258-0.80416-4.377-1.1818-1.0156-0.4506-3.0782 0.72637-6 3.4235-4.8859 4.5102-6.3892 4.9873-7.7679 2.4655-0.8221-1.5037-1.1314-1.4518-3.0497 0.51182-1.1741 1.2018-2.9391 2.1852-3.9221 2.1852-1.2532 0-1.8531 0.8838-2.0075 2.958-0.2779 3.7335 2.7708 4.7537 9.0601 3.0318 3.7317-1.0217 4.951-0.92209 8.5368 0.6974 2.3248 1.0499 4.4602 2.8263 4.8066 3.9987 0.3429 1.1602 1.6962 3.5758 3.0074 5.368 1.3111 1.7922 2.3839 4.2105 2.3839 5.374 0 1.5605 0.6404 2.1155 2.441 2.1155 1.3425 0 2.7613-0.53054 3.1528-1.1789zm28.406-22.672c0-2.5198-2.5031-6.8618-4.298-7.4556-0.9889-0.32715-2.4001-0.0829-3.136 0.54191-1.0832 0.92014-0.7407 1.789 1.7979 4.5606 3.3049 3.6082 5.6361 4.5814 5.6361 2.3531z"/>
      <path id="path3101" d="m1091.9 583.61-2.5-1.0349 3-2.4778c3.2325-2.6699 4.5-3.0824 4.5-1.4644 0 0.563-0.4586 1.0236-1.0191 1.0236-0.5876 0-0.7534 1.0834-0.3915 2.5591 0.6816 2.78 0.2049 2.9651-3.5894 1.3944z"/>
      <path id="path3099" d="m1065.2 586.94c-2.6284-1.3457-3.2323-2.2674-3.25-4.9601-0.017-2.6821 0.4506-3.4286 2.4762-3.949 3.289-0.84501 5.5007 0.10338 5.5084 2.3619 0 1.003 0.6352 3.0577 1.404 4.5661 2.1968 4.3102-0.1255 5.0597-6.1386 1.9811z"/>
      <path id="path3097" d="m1127.8 677.34c-0.6383-0.78717-0.8838-2.1694-0.5456-3.0715 0.4913-1.3106 1.971-1.5989 7.3619-1.4349 8.3863 0.25519 9.3425 0.0932 6.4532-1.094-3.6681-1.5069-1.2725-4.7279 4.0243-5.4107 8.0397-1.0363 10.826-1.9485 11.832-3.8738 0.5541-1.0598 1.6551-1.9269 2.4466-1.9269s2.1373-1.3819 2.9905-3.0709c1.2721-2.5181 2.1767-3.0709 5.0257-3.0709 2.679 0 3.4743-0.42183 3.4743-1.8425 0-1.0134-0.5294-2.3844-1.1764-3.0467-1.6745-1.7141 1.6247-5.303 4.2332-4.6048 1.4445 0.38673 1.9432 0 1.9432-1.5211 0-1.1227 0.6967-2.6332 1.5483-3.3566 2.3374-1.9857 1.417-5.5221-1.5483-5.9489-2.3404-0.33688-8-5.644-8-7.5017 0-0.46155-0.7004-0.83927-1.5564-0.83927s-2.8492-1.449-4.4294-3.2199c-2.6877-3.0121-3.1841-3.1764-7.6936-2.545-2.6513 0.37127-4.9706 1.1293-5.1539 1.6845-0.4825 1.4612-5.1072 1.2399-10.758-0.51478-2.6999-0.83835-5.9003-1.5293-7.1121-1.5354-1.6577-0.0102-2.7155-1.1965-4.2724-4.7992-1.5971-3.696-2.34-4.5109-3.2565-3.5728-0.9166 0.93826-1.7099 0.59319-3.4777-1.5128-1.2596-1.5005-2.2902-3.5518-2.2902-4.5582 0-2.0632-3.5915-5.017-6.1001-5.017-2.0784 0-4.3734-2.6505-3.0305-3.5001 0.5316-0.33626 0.8121-3.2015 0.6233-6.3672-0.3011-5.0515-0.8054-6.2404-4.1209-9.716-2.0777-2.1782-4.3755-3.9602-5.1061-3.9602-0.7307 0-1.5875-0.69094-1.9041-1.5354-0.3551-0.94737-1.8751-1.5354-3.9686-1.5354-1.8661 0-3.393-0.44876-3.393-0.99732 0-1.4258-5.4566-4.1208-8.3434-4.1208-1.3434 0-2.7251 0.7537-3.0705 1.6748-0.5813 1.5506-0.7618 1.5506-2.4357 0-2.2218-2.0581-3.2127-2.0843-6.8194-0.17996-1.557 0.82218-3.9833 1.7303-5.3917 2.0182-1.4083 0.28774-4.4827 1.9485-6.8318 3.6904-3.2502 2.4101-4.0834 3.5792-3.4855 4.8914 0.4322 0.94829 0.951 4.959 1.1529 8.9126 0.3424 6.7023 0.5653 7.3048 3.2961 8.9091 3.7183 2.1844 3.6947 3.5177-0.1009 5.7021-2.6844 1.5449-2.998 2.2107-2.75 5.8383 0.2442 3.5722 0.5627 4.0544 2.4965 3.7801 2.6573-0.377 4.0614 3.5673 2.4006 6.7439-0.8373 1.6016-0.6384 2.3976 0.9716 3.8892 1.3355 1.237 1.8375 2.6382 1.475 4.1166-0.3406 1.3888-0.024 2.4478 0.8334 2.7845 1.653 0.64929 4.6028 6.404 4.6028 8.9797 0 1.0063-0.45 2.1143-1 2.4622-0.55 0.34793-1 1.7007-1 3.006s-0.675 2.9467-1.5 3.6476c-0.825 0.70088-1.5 2.047-1.5 2.9914 0 0.9445-0.5325 2.2623-1.1833 2.9285-1.3624 1.3946-1.4694 1.2823 3.3602 3.5267 4.0789 1.8956 10.037 1.4575 11.93-0.87705 0.6262-0.77233 2.0959-1.3896 3.266-1.3717 1.9815 0.0307 2.0074 0.12591 0.3776 1.3923-3.6087 2.8042-0.4951 8.3722 3.3185 5.9343 5.3976-3.4504 15.15-5.388 16.432-3.2647 0.3399 0.563 1.3915 1.0236 2.3368 1.0236s2.4893 0.92126 3.4312 2.0472c0.9418 1.126 2.5511 2.0473 3.5762 2.0473 2.2755 0 6.0704 3.6272 8.3429 7.9743 0.9279 1.775 3.1779 3.8671 5 4.649 3.7602 1.6138 5.4684 1.1903 3.7496-0.92966z"/>
      <path id="path3095" d="m1203.9 397.51c0-0.59616 0.45-1.084 1-1.084s1 0.20308 1 0.45142c0 0.24823-0.45 0.73609-1 1.084-0.55 0.34793-1 0.14484-1-0.45142z"/>
      <path id="path3093" d="m1306.7 211.98c-0.2177-0.66857-0.9305-1.398-1.584-1.621-0.7307-0.24934-0.9542 0.21864-0.5805 1.2156 0.6975 1.8607 2.7645 2.2478 2.1645 0.40542z"/>
      <path id="path3091" d="m1308.5 214.5c-1.0165-1.0405-1.8553 0.52603-1.0213 1.9074 0.6301 1.0435 0.8656 1.0443 1.2044 0.004 0.2315-0.7112 0.1492-1.5714-0.1831-1.9115z"/>
      <path id="path3089" d="m1284.7 305.79c1.3946 0.45309 2.4591-0.0449 3.5717-1.6709 2.2869-3.3422 1.9641-5.7248-1.2168-8.9808-3.6575-3.744-10.066-3.7128-13.139 0.0638-2.5193 3.0967-2.5358 4.7608-0.085 8.5668 2.458 3.817 5.0186 4.8412 7.2037 2.8812 0.9713-0.87119 2.5153-1.2335 3.665-0.85998z"/>
      <path id="path3087" d="m1377.4 319.66c-0.3399-0.563-1.068-1.0236-1.618-1.0236s-0.7219 0.46063-0.382 1.0236c0.3399 0.56299 1.068 1.0236 1.618 1.0236s0.7219-0.46063 0.382-1.0236z"/>
      <path id="path3085" d="m1238.6 339.42c-0.9388-0.96099-1.7319-1.1453-2.1253-0.49379-0.3451 0.57163 0.1441 1.8291 1.0871 2.7944 1.2278 1.2569 1.8311 1.3971 2.1252 0.4938 0.2259-0.69369-0.2632-1.9512-1.087-2.7944z"/>
      <path id="path3083" d="m1336.8 337.45c-1.1599-1.4306-1.0864-1.6031 0.5447-1.2795 1.0369 0.20568 2.0726 0.94976 2.3015 1.6535 0.5939 1.826-1.26 1.5824-2.8462-0.37397z"/>
      <path id="path3081" d="m1338.7 347.39c2.7085-1.6348 5.7658-3.1358 6.794-3.3356 1.1791-0.22912 1.9861-1.3993 2.1857-3.1694 0.2483-2.2017 0.8407-2.8062 2.75-2.8062 1.9135 0 2.4336-0.53403 2.4336-2.4987 0-1.3743-0.4892-2.8081-1.0871-3.1864-2.0384-1.2895 0.6302-2.6311 3.2249-1.6213 1.3549 0.5273 3.691 0.71852 5.1915 0.42492 2.1207-0.41499 2.5953-0.96175 2.132-2.4561-0.5771-1.8611 0.3025-2.3957 3.2887-1.9987 0.6875 0.0914 1.25-0.7753 1.25-1.926s0.6053-2.0921 1.345-2.0921c1.7621 0 5.1244-3.8401 5.1415-5.8723 0.01-0.92654 1.6434-2.1721 3.9084-2.9764 5.5146-1.9583 6.8463-3.3354 6.1139-6.3224-0.482-1.9657 0.1152-3.3038 2.6857-6.0183 1.818-1.9198 3.3743-4.5016 3.4583-5.7373s0.4079-6.3399 0.7195-11.343c0.3117-5.0029 0.8054-9.3405 1.0972-9.6392 1.2734-1.3035 0.3521-5.4103-1.6398-7.31-1.9974-1.9048-2.0436-2.2139-0.5798-3.8785 1.3718-1.5599 1.4088-2.2495 0.2691-5.0126-0.7268-1.7622-1.8031-3.5086-2.3918-3.881-0.5886-0.37241-1.9102-2.6208-2.9367-4.9963-2.065-4.7785-6.4783-10.054-9.9405-11.882-1.2375-0.65338-2.25-1.9052-2.25-2.7819 0-0.87663-0.9-2.7651-2-4.1965-1.1-1.4315-2-3.2005-2-3.9311 0-0.73064-0.8407-1.6015-1.8681-1.9353-1.0275-0.33382-2.6722-1.5164-3.655-2.6281-0.9828-1.1116-2.8263-2.0211-4.0967-2.0211-1.3861 0-2.7723-0.92111-3.4663-2.3032-0.6361-1.2667-3.4644-4.5878-6.2852-7.3801s-6.3623-7.063-7.8701-9.4903c-2.3498-3.7829-3.0985-4.3216-5.2407-3.7712-1.7499 0.44957-2.676 0.17059-3.0888-0.93039-0.3242-0.86487-1.9023-2.041-3.5069-2.6135-2.2009-0.7854-2.8566-1.6096-2.6698-3.3564 0.1547-1.4464-0.3572-2.445-1.364-2.661-2.0078-0.43062-2.922 4.3794-2.1553 11.341 0.4323 3.9263 0.1508 5.3115-1.4493 7.1327-1.0922 1.243-2.2637 3.0662-2.6034 4.0514-0.45 1.3053-1.7116 1.7914-4.649 1.7914-3.8208 0-5.481 1.3772-2.7814 2.3073 0.9466 0.32614 0.9728 0.78158 0.1076 1.8766-0.6283 0.7953-1.3085 2.3621-1.5115 3.4817-0.2899 1.5988-1.1715 2.0382-4.1074 2.0473-2.2723 0.007-3.7384-0.47613-3.7385-1.232-0.0003-1.5523-3.1953-3.3628-5.9345-3.3628-2.9078 0-2.5987 2.9141 0.4343 4.0945 2.8144 1.0953 3.3158 4.1744 1 6.1418-1.9179 1.6294-1.9361 7.2076-0.032 9.7847 0.8075 1.0928 1.4825 2.9851 1.5 4.2049 0.024 1.6963 1.5204 2.9602 6.3608 5.374 6.8364 3.4092 8.731 3.7431 11.775 2.0756 2.9012-1.5894 9.1575 1.5217 11.17 5.5546 2.0278 4.0636 2.5001 6.924 3.2531 19.702 0.5099 8.651 0.3186 11.011-1.1612 14.331-0.9744 2.1856-2.0178 5.3558-2.3187 7.0448-0.3309 1.858-1.4357 3.47-2.797 4.0813-2.4791 1.1133-2.7164 2.207-1.3039 6.0099 0.5562 1.4975 1.8956 2.6851 3.25 2.8816 1.5217 0.22081 2.3045 1.0248 2.3057 2.3679 0 1.1185 0.7086 2.1729 1.5725 2.3432 0.9543 0.18813 2.2771 2.7239 3.3711 6.4624 1.6028 5.4772 1.634 6.2876 0.2841 7.3812-0.834 0.67567-1.8083 3.3577-2.1651 5.9601-0.5837 4.2576-0.434 4.789 1.4941 5.3052 2.5303 0.67733 1.6872 2.7586-1.1175 2.7586-2.0263 0-2.676 2.4851-0.9373 3.585 0.552 0.34922 0.7282 1.7583 0.3916 3.1313-0.7991 3.259 0.3999 3.1704 6.4414-0.47597z"/>
      <path id="path3079" d="m1335.6 358.44c4.1256-1.5798 2.9603-3.3062-2.9709-4.4013-3.3801-0.62412-3.7781-0.4542-4.3442 1.8546-1.1687 4.7666 0.2386 5.2566 7.3151 2.5467z"/>
      <path id="path3077" d="m1327.9 367.2c0-0.81132-0.675-1.475-1.5-1.475-1.5062 0-2.0557 2.1609-0.8605 3.3842 0.9332 0.95535 2.3605-0.19909 2.3605-1.9092z"/>
      <path id="path3075" d="m1324.6 390.33c0.9908-1.6241 0.913-2.5484-0.4134-4.9141l-1.6336-2.9138-2.3462 2.4015c-2.6161 2.6779-2.9295 4.3727-1.1461 6.1983 1.7805 1.8226 4.1586 1.4912 5.5393-0.77192z"/>
      <path id="path3073" d="m1273.9 408.97c-0.059-1.4334-4.4823-4.0788-7.9827-4.7738l-3.4859-0.69208 2.9644 2.5626c2.5729 2.224 3.8379 2.7979 7.7856 3.5316 0.4125 0.0768 0.7359-0.20605 0.7186-0.6283z"/>
      <path id="path3071" d="m1286.3 413.4c-0.5881-1.5687-3.3595-3.012-4.1769-2.1752-0.7736 0.79187 1.8667 3.6315 3.3767 3.6315 0.7532 0 1.1057-0.64141 0.8002-1.4563z"/>
      <path id="path3069" d="m1285.4 419.97c-0.3399-0.563-1.0415-1.0236-1.559-1.0236-0.5176 0-0.941 0.46063-0.941 1.0236 0 0.563 0.7016 1.0236 1.559 1.0236 0.8575 0 1.2809-0.46063 0.941-1.0236z"/>
      <path id="path3067" d="m1239.7 547.67c-0.2257-0.70374-1.7001-1.4339-3.2763-1.6224-2.5168-0.30125-2.7057-0.14535-1.5505 1.2795 1.5627 1.9274 5.4231 2.2016 4.8268 0.34291z"/>
      <path id="path3065" d="m1217.9 561.25c-1.8621-1.178-2.4469-0.57937-1.6114 1.6495 0.5132 1.3688 0.9201 1.4808 1.8652 0.51335 0.9452-0.96754 0.8898-1.4393-0.2538-2.1628z"/>
      <path id="path3063" d="m1209.7 578.57c2.6033-0.0624 2.6165-0.0932 0.4349-0.99067-2.3849-0.98124-2.8053-2.6028-1.3045-5.031 1.3842-2.2395-0.66-5.3589-3.2632-4.9796-1.7157 0.25008-2.2967 1.1936-2.7174 4.4126-0.2942 2.252-0.8833 4.6703-1.309 5.374-1.3214 2.1846 0.1808 3.3397 2.9446 2.2641 1.3913-0.5415 3.7379-1.0137 5.2146-1.0494z"/>
      <path id="path3061" d="m1192.4 608.23c0.8581-1.4213-1.044-3.4252-2.4231-2.5526-1.1484 0.72647-0.4131 3.6654 0.9172 3.6654 0.4587 0 1.1363-0.50076 1.5059-1.1128z"/>
      <path id="path3059" d="m1188.9 610.85c0-1.8118-3.6886-3.8997-5.5781-3.1575-2.2062 0.8666-1.6881 2.4619 1.3242 4.0775 2.9833 1.6 4.2539 1.3252 4.2539-0.92004z"/>
      <path id="path3057" d="m1176.3 625.24c-2.2553-1.7462-3.4411-1.9596-3.4411-0.6194 0 0.52164 0.7875 1.1592 1.75 1.4167 3.2756 0.87622 3.6343 0.70712 1.6911-0.7973z"/>
      <path id="path3055" d="m1159.7 669.55c-0.618-1.898-2.7708-2.2129-2.7708-0.40515 0 0.89138 0.7125 1.6207 1.5833 1.6207 0.8709 0 1.4052-0.54703 1.1875-1.2156z"/>
      <path id="path3053" d="m1305.7 429.97c1.2356 0.48531 1.2451 0.73835 0.063 1.6859-1.0051 0.806-1.3903 3.6912-1.3903 10.413 0 9.0306-0.093 9.4071-3.25 13.087-1.7875 2.0839-3.25 4.2544-3.25 4.8234 0 0.56894 1.1553 2.2171 2.5674 3.6626l2.5674 2.6281-2.0716 1.9756c-1.1394 1.0866-2.6322 1.8592-3.3174 1.717-0.6852-0.14228-2.2661 0.31907-3.5132 1.0253l-2.2674 1.2839 3.0174 4.4893c3.6134 5.376 3.6507 5.652 0.7674 5.6699-1.2375 0.0102-3.3043 0.30289-4.5928 0.65604-1.9688 0.53955-2.2673 1.1502-1.8697 3.8246 0.6342 4.267-0.656 6.4606-4.2792 7.2752-2.2538 0.5067-3.0083 1.2521-3.0083 2.9722 0 3.4308-7.2454 8.0154-11.405 7.2167-2.4185-0.46452-3.5964-0.11035-5.0314 1.5127-1.4081 1.5927-3.0882 2.1192-6.7622 2.1192-3.8344 0-5.4723 0.55409-7.595 2.5694-2.3188 2.2015-2.6764 3.296-2.497 7.6425 0.1151 2.7902-0.2224 5.3462-0.75 5.68-0.5277 0.33381-0.9594 2.8292-0.9594 5.5453 0 4.0774-0.3486 5.0316-2 5.4736-1.6586 0.44405-2 1.3963-2 5.5788 0 2.7738 0.255 5.3044 0.5667 5.6234 1.1396 1.1666 8.0628 0.56187 12.933-1.1298l-0.0005-0.0002c2.75-0.95515 6.2566-2.5932 7.7924-3.6399 1.5359-1.0468 4.7017-1.9847 7.0351-2.0842 2.3335-0.0993 5.7586-0.95494 7.6112-1.9011 1.8527-0.94604 4.1729-1.7201 5.1559-1.7201 0.9831 0 2.0699-0.4679 2.4152-1.0399 0.3983-0.65963 1.6646-0.41293 3.4636 0.67488 2.6447 1.5991 3.0712 1.6002 6.3323 0.0164 1.9231-0.93406 4.6926-1.6984 6.1544-1.6984 1.6716 0 2.4067-0.4161 1.981-1.1213-0.3724-0.61663-0.2147-2.1137 0.3503-3.3268 0.565-1.213 1.2789-3.0116 1.5865-3.9969 0.3383-1.0835 1.5596-1.7914 3.0907-1.7914 1.569 0 2.5314-0.5763 2.5314-1.5159 0-1.5584 4.2149-3.1961 5.7409-2.2307 1.3218 0.8362 3.6006-1.0015 2.8282-2.2807-0.3779-0.62595-1.3731-1.1381-2.2115-1.1381-2.2436 0-1.0516-2.506 1.3663-2.8722 3.1611-0.47875 5.6761-3.991 5.6761-7.9268 0-3.1658 0.2835-3.5318 2.7349-3.5318 1.5042 0 3.8806-0.44589 5.2809-0.99087 3.0724-1.1957 2.5621-3.4171-1.6104-7.011-3.5512-3.0587-3.5601-5.4312-0.028-7.5667 4.7147-2.8508 6.5301-5.475 5.3496-7.7329-0.7143-1.3662-0.7082-2.308 0.02-3.053 1.4811-1.5161 0.1289-5.1507-2.1973-5.9064-1.0718-0.34824-1.9488-1.1416-1.9488-1.7631 0-0.62154-0.7344-1.9606-1.632-2.9759-1.5272-1.7275-1.463-1.9117 1-2.8702 2.9661-1.1544 3.4014-2.601 1.0596-3.5209-2.23-0.87592-5.5442 1.2026-5.2094 3.267 0.1606 0.99067-0.3632 1.7379-1.2182 1.7379-1.0728 0-1.5311-1.2004-1.6092-4.215-0.06-2.3182-0.4317-4.7491-0.8259-5.4021-0.3943-0.65287 0.2752-3.2847 1.4877-5.8486 1.8348-3.8798 2.1212-5.8535 1.7076-11.77-0.3116-4.4586-1.091-7.7806-2.0906-8.9113-0.975-1.1028-1.3645-2.7006-1.0031-4.115 0.4007-1.5687-0.013-2.7998-1.2879-3.8285-1.8247-1.4728-1.8158-1.562 0.3121-3.1086l2.1907-1.5924-3.3227-2.9863c-1.8275-1.6425-4.1633-2.9801-5.1907-2.9723-3.4032 0.0256-6.368 1.2294-6.368 2.5859 0 1.7306-4.8474 7.6364-6.2679 7.6364z"/>
      <path id="path3051" d="m1406.9 368.22c0-1.4857 0.4328-2.3456 1-1.9869 0.55 0.34793 1 1.5267 1 2.6195s-0.45 1.9869-1 1.9869-1-1.1788-1-2.6195z"/>
      <path id="path3049" d="m1403.4 387.22c-0.6548-2.1118 0.8858-5.123 2.6209-5.123 1.4241 0 1.0018 4.7619-0.5383 6.0703-1.1322 0.96191-1.5495 0.77202-2.0826-0.94736z"/>
      <path id="path3047" d="m1393 427.27c0.4182-1.2844 1.875-1.5826 1.875-0.38386 0 0.42225-0.5062 0.94051-1.125 1.1516-0.6187 0.21118-0.9562-0.1343-0.75-0.76772z"/>
      <path id="path3045" d="m1415.4 431.3c-0.3164-0.5241-0.118-1.2423 0.441-1.5958 0.559-0.35366 1.0163 0.0747 1.0163 0.9529 0 1.798-0.6001 2.0627-1.4573 0.64294z"/>
      <path id="path3043" d="m1389.1 438.74c-1.8427-0.76106-1.5196-3.8731 0.6066-5.8428 1.6498-1.5284 1.9964-1.5475 3.1117-0.17197 0.7263 0.89588 0.9893 2.6316 0.6243 4.1203-0.6101 2.4882-1.7261 2.9752-4.3426 1.8944z"/>
      <path id="path3041" d="m1260.1 579.31c-1.2316-0.88309-1.9802-2.0347-1.6635-2.5591 0.8254-1.3671 5.8392-1.1773 7.2577 0.27474 3.4124 3.493-1.2519 5.3976-5.5942 2.2843z"/>
      <path id="path3039" d="m1220.6 648.91c0.1941-0.6067-0.8521-1.6652-2.325-2.3522-3.051-1.423-5.0117-0.23462-4.0123 2.4315 0.6993 1.8654 5.7351 1.8024 6.3373-0.0798z"/>
      <path id="path3037" d="m1248.3 631.97c0.3438-1.7593 0.625-3.7946 0.625-4.5228s1.5906-2.3303 3.5347-3.5602c2.6944-1.7046 3.3879-2.7098 2.9171-4.2282-0.3624-1.1688 0.1397-3.1344 1.2153-4.7568 1.0081-1.5206 2.0623-3.9164 2.3427-5.3239s0.9351-2.5591 1.4549-2.5591 1.2089 1.1516 1.5312 2.5591c0.9994 4.3638 4.3624 3.8293 7.6931-1.2228 1.598-2.424 3.2076-5.2132 3.5769-6.1985 0.4014-1.0712 1.7177-1.7914 3.2743-1.7914 2.2464 0 2.5589-0.38243 2.2814-2.7928-0.2889-2.5087 0.054-2.8558 3.376-3.4128 4.3794-0.73446 6.373-2.2585 8.5228-6.5153 2.0508-4.0609 7.3583-10.823 8.4949-10.823 1.5381 0 5.6648-5.5214 6.3181-8.4534 0.346-1.553 1.4926-3.2965 2.5479-3.8746 1.0553-0.57815 1.9187-1.9562 1.9187-3.0624 0-1.1061 0.444-2.0112 0.9866-2.0112 1.1749 0 4.0134-6.604 4.0134-9.3376 0-2.425-0.5247-2.4081-4.0048 0.12857-1.5475 1.1278-3.417 1.8156-4.1544 1.5283-0.7374-0.28733-3.3102 1.3232-5.7172 3.5791-2.407 2.256-4.9338 4.1017-5.6151 4.1017s-2.3829 0.92126-3.7814 2.0472c-1.3984 1.126-3.8246 2.0473-5.3914 2.0473-1.5669 0-4.3887 0.45203-6.2708 1.0046-2.2972 0.67436-5.7363 0.637-10.464-0.11383-6.6801-1.061-7.1137-1.0074-8.4435 1.0427-0.7709 1.1886-2.0077 2.1611-2.7484 2.1611-0.7525 0-1.1062 0.64141-0.8017 1.4538 0.315 0.84009-1.1717 3.2644-3.5218 5.7434-3.289 3.4691-4.5381 4.1685-6.5304 3.6567-1.7069-0.43853-3.0152-0.0409-4.2595 1.295-0.9878 1.0604-2.921 2.2775-4.296 2.7047-3.2621 1.0136-3.9662 2.2428-3.9847 6.9563-0.012 3.0518-0.6966 4.5332-3.1588 6.8353-2.9411 2.7498-3.1476 3.405-3.2082 10.179-0.043 4.8594-0.4543 7.2396-1.2496 7.2396-1.9775 0-2.4909 3.1019-0.8985 5.4291 2.2647 3.3096 1.8429 4.6329-2.0002 6.2767-4.155 1.777-4.3471 2.9082-1 5.8872 1.5616 1.39 2.5 3.3085 2.5 5.1114 0 3.5793-1.2572 3.6873-3.4289 0.2946-2.0144-3.1469-3.1857-2.6079-3.8111 1.7542-0.4028 2.8096 0.1617 3.9385 3.9229 7.8438l4.3934 4.5618 3.0625-2.969c1.6844-1.633 3.4561-4.0055 3.9371-5.2722s1.5281-2.3032 2.3268-2.3032 2.4074-1.2431 3.575-2.7625c2.3712-3.0858 3.9892-6.8143 6.7267-5.3146z"/>
      <path id="path3035" d="m1425.4 206.03c0.3399-0.563 1.0415-1.0236 1.559-1.0236 0.5176 0 0.941 0.46063 0.941 1.0236 0 0.56299-0.7016 1.0236-1.559 1.0236-0.8575 0-1.2809-0.46064-0.941-1.0236z"/>
      <path id="path3033" d="m1405.9 206.12c0-1.6421-0.5625-3.1941-1.25-3.449-0.9393-0.34819-0.9771-0.94196-0.1524-2.3885 0.6051-1.0612 0.9323-4.7958 0.7293-8.3228-0.2255-3.9156 0.028-6.3977 0.6524-6.3977 0.5614 0 1.0302 1.0364 1.0418 2.3032 0.012 1.2667 1.1346 5.5276 2.4956 9.4686 3.3857 9.8037 3.2993 11.772-0.5167 11.772-2.6476 0-3-0.35068-3-2.9856z"/>
      <path id="path3031" d="m1413.9 235.72c0-0.563 0.1984-1.0236 0.441-1.0236 0.2425 0 0.7191 0.46063 1.059 1.0236 0.3399 0.563 0.1415 1.0236-0.441 1.0236-0.5824 0-1.059-0.46063-1.059-1.0236z"/>
      <path id="path3029" d="m1398.2 234.95c-1.113-3.0109-7.47-11.842-10.968-15.237-3.1755-3.0816-4.2518-5.4919-2.4523-5.4919 1.607 0 12.82 13.814 13.503 16.634 0.3745 1.5482 1.1224 2.815 1.662 2.815 0.5395 0 0.9809 0.69095 0.9809 1.5354 0 2.1147-1.9151 1.9348-2.725-0.25591z"/>
      <path id="path3027" d="m1402.9 243.97c0-0.59622 0.45-1.084 1-1.084s1 0.20312 1 0.4514c0 0.24827-0.45 0.73609-1 1.084-0.55 0.34795-1 0.14482-1-0.4514z"/>
      <path id="path3025" d="m1278.4 136.44c0-1.6359-0.6423-2.6717-1.798-2.8995-2.3466-0.46258-4.702 1.591-4.702 4.0993 0 1.6249 0.592 1.9284 3.25 1.666 2.7112-0.26759 3.25-0.7427 3.25-2.8658z"/>
      <path id="path3023" d="m1267.4 138.47c-0.3399-0.563-0.8165-1.0236-1.059-1.0236-0.2426 0-0.441 0.46063-0.441 1.0236 0 0.563 0.4766 1.0236 1.059 1.0236 0.5825 0 0.7809-0.46063 0.441-1.0236z"/>
      <path id="path3021" d="m1323.9 168.68c0.7166-0.88387 0.9553-2.5049 0.5651-3.8386-0.7154-2.4458-2.5227-13.074-2.8601-16.82-0.1577-1.7509-0.8424-2.2241-3.2006-2.2119-6.815 0.0352-7.7877 1.4802-4.8762 7.2435 1.3953 2.7619 2.1538 7.4031 2.3317 14.267 0.072 2.7897 6.0598 3.8025 8.0401 1.36z"/>
      <path id="path4686" d="m1302.4 178.39c0.3405-0.56405-0.5243-1.4706-1.9219-2.0145-1.6105-0.62677-2.339-1.528-1.9894-2.4608 0.7822-2.0865-2.6054-5.7591-5.3121-5.7591-2.803 0-2.8358 0.45246-0.2266 3.1232 1.1787 1.2066 1.8196 2.8462 1.5069 3.8548-0.8505 2.7428 6.4469 5.7344 7.9431 3.2563z"/>
    </g>
    <g id="g5268" transform="translate(300 306)" fill="#f9e5b4">
      <path id="path3131" style="block-progression:tb;color:#000000;text-transform:none;text-indent:0" d="m6.0488-252.81c-275.52 0-499.06 223.55-499.06 499.06 0 275.52 223.55 499.09 499.06 499.09 275.52 0 499.09-223.58 499.09-499.09 0-275.52-223.58-499.06-499.09-499.06zm0 19.379c265.04 0 479.71 214.64 479.71 479.68s-214.67 479.71-479.71 479.71-479.68-214.67-479.68-479.71 214.64-479.68 479.68-479.68z"/>
      <path id="path3901" style="block-progression:tb;color:#000000;text-transform:none;text-indent:0" d="m6.0522-99.759c-191.04 0-346.02 154.98-346.02 346.02s154.98 346.02 346.02 346.02 346.04-154.98 346.04-346.02-155-346.02-346.04-346.02zm0 11.537c184.8 0 334.5 149.68 334.5 334.48s-149.7 334.5-334.5 334.5-334.48-149.7-334.48-334.5 149.68-334.48 334.48-334.48z"/>
      <path id="path3905" d="m-17.24-64.045-10.932 33.644c-16.312 1.9605-32.186 5.3198-47.521 9.9386l-23.558-26.172-21.828 9.7178-20.761 9.2392 3.6442 34.675c-14.156 8.4102-27.482 18.039-39.902 28.712l-31.583-14.098-15.975 17.779-15.202 16.859 16.969 29.448c-9.7062 13.547-18.251 27.99-25.472 43.178h-33.423l-7.3988 22.712-6.9938 21.607 26.503 19.288c-3.4156 16.51-5.4204 33.554-5.8159 50.981l-29.448 13.104 2.4663 23.779 2.3926 22.601 30.81 6.5521c3.7275 17.373 9.0294 34.183 15.791 50.208l-20.687 22.969 11.926 20.724 11.374 19.656 29.779-6.3313c10.595 14.46 22.536 27.863 35.632 40.049l-9.3128 28.601 19.325 14.024 18.405 13.362 23.963-17.448c15.648 8.9459 32.206 16.489 49.546 22.343l3.0552 29.19 23.411 4.9693 22.196 4.7484 14.687-25.435c8.9023 0.84585 17.931 1.2884 27.055 1.2884 9.2488 0 18.402-0.45624 27.423-1.3252l14.687 25.472 23.374-4.9693 22.233-4.7484 3.0552-29.337c17.283-5.8623 33.801-13.371 49.399-22.307l24.11 17.558 19.362-14.061 18.368-13.325-9.3865-28.859c13.004-12.133 24.844-25.485 35.374-39.865l30.11 6.4049 11.963-20.687 11.337-19.693-20.945-23.264c6.6942-15.915 11.94-32.599 15.644-49.84l31.215-6.6258 2.503-23.779 2.3558-22.601-29.816-13.251c-0.40111-17.297-2.402-34.22-5.7791-50.613l26.834-19.509-7.3619-22.712-7.0306-21.607h-33.791c-7.15-15.09-15.64-29.422-25.26-42.888l17.15-29.743-15.98-17.742-15.2-16.896-31.8 14.172c-12.35-10.624-25.65-20.178-39.72-28.564l3.681-34.896-21.828-9.7178-20.761-9.2392-23.632 26.245c-15.308-4.6289-31.164-7.9962-47.448-9.9754l-10.932-33.681h-46.601zm262.42 310.3c0 132.06-107.06 239.12-239.12 239.12s-239.12-107.06-239.12-239.12 107.06-239.12 239.12-239.12 239.12 107.06 239.12 239.12z"/>
      <path id="path4213" style="block-progression:tb;color:#000000;text-transform:none;text-indent:0" d="m6.0625-216.25c-22.937 0.002-45.978 8.2791-60.5 25.5l-0.40625 0.46875-0.28125 0.59375c-8.0748 17.153-25.688 29.677-45.562 35-19.874 5.3226-41.661 3.3373-57.688-7.4062l-0.53125-0.34375-0.59375-0.21875c-21.576-7.4905-45.847-3.1003-65.719 8.375-19.871 11.475-35.64 30.226-39.562 52.531l-0.125 0.625 0.0625 0.65625c1.6188 19.039-7.3626 38.741-21.906 53.281-14.544 14.54-34.405 23.635-53.688 22.219l-0.625-0.03125-0.625 0.125c-22.479 4.1544-41.337 19.995-52.812 39.875s-15.724 44.096-7.9375 65.5l0.1875 0.59375 0.375 0.53125c10.97 15.826 13.074 37.454 7.75 57.312-5.3238 19.859-17.978 37.592-35.406 45.875l-0.5625 0.28125-0.5 0.40625c-17.444 14.701-25.877 37.824-25.875 60.781s8.4405 46.1 25.906 60.875l0.5 0.40625 0.5625 0.28125c17.468 8.3558 30.119 26.109 35.438 45.969 5.3188 19.86 3.1907 41.475-7.7812 57.219l-0.34375 0.53125-0.21875 0.59375c-7.805 21.329-3.5728 45.497 7.9062 65.375s30.372 35.761 52.906 39.969l0.625 0.125 0.625-0.0313c19.353-1.3731 39.241 7.7376 53.781 22.281 14.54 14.544 23.474 34.25 21.812 53.219l2.4688 0.21875-2.4688 0.21875 3.9062 0.15625-3.8438 0.65625c3.8699 22.251 19.626 40.997 39.5 52.469s44.193 15.879 65.844 8.4062l0.6-0.24 0.5-0.34375c16.109-10.741 37.94-12.734 57.812-7.4062 19.873 5.3275 37.435 17.887 45.438 35l0.28125 0.5625 0.40625 0.5c14.448 17.2 37.438 25.471 60.375 25.469s46.194-8.2853 61.25-25.438l0.411-0.46 0.281-0.57c8.6091-17.222 26.553-29.8 46.438-35.125 19.884-5.3254 41.369-3.3124 56.812 7.375l0.53125 0.375 0.625 0.21875c21.078 7.5242 45.084 3.1212 64.938-8.3438s35.869-30.187 40.375-52.438l0.125-0.625-0.0313-0.625c-1.1203-19.073 8.1234-38.877 22.688-53.438 14.564-14.561 34.189-23.628 52.875-22.219l0.625 0.0625 0.65625-0.125c21.968-4.17 40.511-20.057 51.969-39.906s16.003-43.978 8.8125-65.375l-0.2187-0.59375-0.33-0.53c-10.459-15.81-12.334-37.541-7-57.438s17.789-37.621 34.656-45.875l0.5625-0.28125 0.5-0.4375c16.884-14.73 25.002-37.803 25-60.719s-8.1255-46.04-25.031-60.844l-0.48-0.41-0.59-0.28c-16.908-8.327-29.358-26.133-34.688-46.031-5.3291-19.898-3.4293-41.554 7.0312-57.281l0.35-0.535 0.22-0.625c7.21-21.323 2.68-45.403-8.79-65.25-11.46-19.847-30.03-35.777-52.06-40l-0.65625-0.09375-0.625 0.03125c-18.757 1.3663-38.408-7.7484-52.969-22.312s-23.788-34.31-22.625-53.312l0.0313-0.65625-0.125-0.625c-4.4534-22.195-20.425-40.882-40.281-52.344-19.856-11.461-43.91-15.881-65.062-8.375l-0.59375 0.21875-0.53125 0.375c-15.526 10.686-37.055 12.674-56.938 7.3438-19.883-5.3303-37.776-17.88-46.312-35.062l-0.28125-0.5625-0.40625-0.5c-14.997-17.13-38.203-25.37-61.14-25.37zm0 9.7812c20.451-0.002 40.833 7.464 53.531 21.812 10.229 19.855 30.213 33.517 52.062 39.375 21.824 5.8507 45.773 3.966 64.156-8.25 17.707-6.1668 38.87-2.5118 56.594 7.7188 17.746 10.244 31.702 26.895 35.531 45.562-0.98573 22.141 9.5118 43.852 25.469 59.812 15.969 15.973 37.574 26.369 59.562 25.125 18.408 3.6265 34.912 17.447 45.156 35.188 10.227 17.71 14.011 38.998 8.0938 56.906-11.958 18.573-13.692 42.602-7.8438 64.438 5.8476 21.834 19.356 41.768 39 51.812 14.064 12.487 21.436 32.765 21.438 53.219s-7.3796 40.684-21.406 53.094c-19.621 9.9732-33.116 29.856-38.969 51.688-5.8469 21.81-4.1241 45.832 7.7812 64.469 5.9551 18.014 2.1792 39.382-8.0625 57.125-10.236 17.732-26.738 31.507-45.062 35.094-21.933-1.2945-43.528 9.0942-59.5 25.062-15.983 15.979-26.531 37.741-25.562 59.969-3.9064 18.7-17.879 35.364-35.594 45.594-17.734 10.241-38.873 13.847-56.5 7.6562-18.308-12.223-42.213-14.093-64.031-8.25-21.878 5.86-41.932 19.53-52.222 39.44-12.78 14.34-33.204 21.81-53.626 21.81-20.441 0.002-40.511-7.4528-52.656-21.719-9.6862-19.919-29.455-33.609-51.312-39.469-21.884-5.8666-46.103-3.9874-65 8.25-18.285 6.1755-39.685 2.4923-57.375-7.7188-17.728-10.233-31.365-26.826-34.688-45.438 1.5725-22.184-8.6726-43.95-24.656-59.938-15.995-15.999-37.925-26.403-60.406-25.156-18.989-3.6399-35.741-17.476-45.969-35.188-10.221-17.699-13.752-38.93-7.3125-56.844 12.508-18.556 14.574-42.638 8.7188-64.5-5.863-21.892-19.711-41.836-39.906-51.844-14.595-12.515-22.186-32.741-22.188-53.156-0.002-20.431 7.6077-40.659 22.188-53.094 20.139-9.9468 33.982-29.852 39.844-51.719 5.8568-21.847 3.8139-45.939-8.6562-64.562-6.4502-18.007-2.9431-39.287 7.2812-57 10.219-17.704 26.939-31.493 45.844-35.094 22.438 1.3096 44.369-9.0603 60.375-25.062 16.011-16.007 26.308-37.853 24.75-60.125 3.4014-18.643 17.055-35.219 34.75-45.438 17.697-10.22 39.107-13.884 57.312-7.6875 18.817 12.221 42.981 14.137 64.844 8.2812 21.804-5.8395 41.56-19.486 51.344-39.344 12.213-14.381 32.377-21.904 52.875-21.906z"/>
      <path id="path3017" d="m6.1526 395.89 4.955 10.04 11.08 1.61-8.0173 7.8149 1.8926 11.035-9.9099-5.21-9.9099 5.21 1.8926-11.035-8.0173-7.8149 11.08-1.61zm152.09-121.56l4.955 10.04 11.08 1.61-8.0173 7.8149 1.8926 11.035-9.9099-5.21-9.9099 5.21 1.8926-11.035-8.0173-7.8149 11.08-1.61zm-310.24 0 4.955 10.04 11.08 1.61-8.0173 7.8149 1.8926 11.035-9.9099-5.21-9.9099 5.21 1.8926-11.035-8.0173-7.8149 11.08-1.61zm158.15 0.0649-9.8033 9.8032 3.0635 15.57c-2.9527 0.70377-5.7286 1.8574-8.2535 3.3879l-9.0104-13.083h-13.84v13.84l13.119 8.8301c-1.5494 2.5181-2.7008 5.3029-3.4239 8.2535l-15.606-2.8473-9.7672 9.7672 9.7672 9.8033 15.57-3.0635c0.70619 2.9629 1.8495 5.7576 3.3879 8.2895l-13.047 8.9743v13.84h13.84l8.8301-13.119c2.5181 1.5494 5.3029 2.7008 8.2535 3.4239l-2.8833 15.606 9.8033 9.7672 9.8033-9.7672-3.0635-15.57c2.9629-0.70616 5.7576-1.8495 8.2895-3.3879l8.9743 13.047h13.84v-13.84l-13.119-8.8301c1.5486-2.5174 2.7011-5.304 3.4239-8.2535l15.606 2.8833 9.7672-9.8033-9.7672-9.7672-15.57 3.0275c-0.70619-2.9629-1.8495-5.7576-3.3879-8.2895l13.047-8.9743v-13.84h-13.84l-8.8662 13.155c-2.5112-1.5415-5.2771-2.7033-8.2174-3.4239l2.8833-15.606-9.8033-9.8032zm-3.2231-253.29c-2.6831 0.03674-5.3776 0.1225-8.0372 0.2523 0.42882 12.955 0.60462 41.183-5.9829 44.007-6.3571 2.7245-35.369-21.46-49.917-34.131-3.2806 1.0222-6.5168 2.1134-9.7312 3.2798 12.781 11.461 45.506 41.699 42.709 48.692-3.033 7.5825-104.6 8.3808-129.64 8.4697-2.5623 2.7131-5.0703 5.4878-7.4966 8.3256 28.656-0.02964 134.58 0.37872 137.75 7.7849 3.1616 7.3772-33.159 43.061-43.322 52.837l-142.04 38.06-0.25229 1.1173h437.87l-0.32437-0.68475-140.24-81.093-32.077 18.489c-5.8686-5.6307-23.141-23.024-20.255-30.239 2.9484-7.3711 112.3-7.1751 144.78-6.956-3.158-3.6641-6.455-7.2155-9.8393-10.668-30.08 0.184-132.42 0.346-135.55-6.963-3.204-7.471 34.217-41.295 43.824-49.809-2.584-0.832-5.198-1.639-7.821-2.379-11.608 9.667-46.64 38.131-53.846 35.248-6.8228-2.729-9.6494-31.503-10.56-43.646zm13.371 102.64c6.8304-0.63525 18.35 13.048 23.607 19.823l-32.653 18.78c0.055166-9.8886 0.85043-35.319 7.7489-38.276 0.41046-0.17591 0.84213-0.28203 1.2975-0.32438zm-27.319 0.75687c0.52387-0.0136 1.0118 0.0443 1.4417 0.21625 7.0055 2.8022 5.592 27.43 4.7935 36.798l-22.021-12.687-17.192 4.6133c7.3699-8.7154 25.12-28.737 32.978-28.941zm-204.86 86.031c-0.81609 3.5066-1.1782 5.5414-1.3696 9.2626l446.7 0.18021c-0.0755-3.0846-0.5067-6.257-1.2614-9.3708l-444.07-0.0721zm445.98 16.687-447.96 0.14416c-0.97501 6.6098-1.2659 13.303-0.93708 20.111l449.65-0.21625c0.39909-6.7389 0.13325-13.85-0.75687-20.039zm0.82895 32.329-449.54 0.32437c7.1274 118.23 105.01 211.6 224.68 211.6 119.9 0 217.93-93.716 224.86-211.92zm-440.61 6.4514h430.19l-215.13 182.12-215.06-182.12z"/>
    </g>
  </g>
  <metadata>
    <rdf:RDF>
      <cc:Work>
        <dc:format>image/svg+xml</dc:format>
        <dc:type rdf:resource="http://purl.org/dc/dcmitype/StillImage"/>
        <cc:license rdf:resource="http://creativecommons.org/licenses/publicdomain/"/>
        <dc:publisher>
          <cc:Agent rdf:about="http://openclipart.org/">
            <dc:title>Openclipart</dc:title>
          </cc:Agent>
        </dc:publisher>
        <dc:title>Pretty Coin, Golden</dc:title>
        <dc:date>2012-12-30T17:13:42</dc:date>
        <dc:description>Just a simple remix of a Philippine coin, without text.</dc:description>
        <dc:source>http://openclipart.org/detail/173984/pretty-coin-golden-by-qubodup-173984</dc:source>
        <dc:creator>
          <cc:Agent>
            <dc:title>qubodup</dc:title>
          </cc:Agent>
        </dc:creator>
        <dc:subject>
          <rdf:Bag>
            <rdf:li>5</rdf:li>
            <rdf:li>cash</rdf:li>
            <rdf:li>clip art</rdf:li>
            <rdf:li>clipart</rdf:li>
            <rdf:li>coin</rdf:li>
            <rdf:li>coins</rdf:li>
            <rdf:li>gold</rdf:li>
            <rdf:li>golden</rdf:li>
            <rdf:li>money</rdf:li>
            <rdf:li>peso</rdf:li>
            <rdf:li>pesos</rdf:li>
            <rdf:li>philippines</rdf:li>
            <rdf:li>platinum</rdf:li>
            <rdf:li>precious</rdf:li>
            <rdf:li>rich</rdf:li>
            <rdf:li>riches</rdf:li>
            <rdf:li>silver</rdf:li>
            <rdf:li>treasure</rdf:li>
            <rdf:li>treasures</rdf:li>
          </rdf:Bag>
        </dc:subject>
      </cc:Work>
      <cc:License rdf:about="http://creativecommons.org/licenses/publicdomain/">
        <cc:permits rdf:resource="http://creativecommons.org/ns#Reproduction"/>
        <cc:permits rdf:resource="http://creativecommons.org/ns#Distribution"/>
        <cc:permits rdf:resource="http://creativecommons.org/ns#DerivativeWorks"/>
      </cc:License>
    </rdf:RDF>
  </metadata>
</svg>
