<svg id="Layer_1_1_" enable-background="new 0 0 64 64" height="512" viewBox="0 0 64 64" width="512" xmlns="http://www.w3.org/2000/svg"><path d="m33.607 17.393 3.536-3.536c-3.62-3.618-8.62-5.857-14.143-5.857v5c4.142 0 7.892 1.679 10.607 4.393z" fill="#47a2de"/><path d="m33.607 38.607 3.535 3.536c3.321-3.321 5.457-7.811 5.79-12.795.03-.448.068-.893.068-1.348h-5c0 4.142-1.679 7.892-4.393 10.607z" fill="#47a2de"/><path d="m8 28h-5c0 5.523 2.239 10.523 5.858 14.142l3.535-3.536c-2.714-2.714-4.393-6.464-4.393-10.606z" fill="#ffecc7"/><path d="m12.393 17.393-3.536-3.536c-3.618 3.62-5.857 8.62-5.857 14.143h5c0-4.142 1.679-7.892 4.393-10.607z" fill="#47a2de"/><path d="m23 13v-5c-5.523 0-10.523 2.239-14.142 5.858l3.536 3.536c2.714-2.715 6.464-4.394 10.606-4.394z" fill="#ffecc7"/><path d="m23 43v5c5.523 0 10.523-2.239 14.142-5.858l-3.535-3.536c-2.715 2.715-6.465 4.394-10.607 4.394z" fill="#ffecc7"/><path d="m23 43c-4.142 0-7.892-1.679-10.607-4.393l-3.535 3.536c3.619 3.618 8.619 5.857 14.142 5.857z" fill="#47a2de"/><path d="m38 28h5c0-5.523-2.239-10.523-5.858-14.142l-3.536 3.536c2.715 2.714 4.394 6.464 4.394 10.606z" fill="#ffecc7"/><path d="m38 28c0-4.142-1.679-7.892-4.393-10.607s-6.465-4.393-10.607-4.393-7.892 1.679-10.607 4.393c-2.714 2.715-4.393 6.465-4.393 10.607s1.679 7.892 4.393 10.607c2.715 2.714 6.465 4.393 10.607 4.393s7.892-1.679 10.607-4.393 4.393-6.465 4.393-10.607z" fill="#ffecc7"/><path d="m23 18-4 9-6-4 .735 2.205c.838 2.514 1.265 5.146 1.265 7.795h16c0-2.649.427-5.281 1.265-7.795l.735-2.205-6 4z" fill="#fdb62f"/><path d="m38.164 14.983c1.291 1.503 2.366 3.193 3.168 5.034 4.009.088 7.633 1.736 10.274 4.377l3.536-3.536c-3.591-3.591-10.04-6.802-16.978-5.875z" fill="#47a2de"/><path d="m51.607 45.607 3.535 3.536c3.321-3.321 5.457-7.811 5.79-12.795.03-.448.068-.893.068-1.348h-5c0 4.142-1.679 7.892-4.393 10.607z" fill="#47a2de"/><path d="m41 50v5c5.523 0 10.523-2.239 14.142-5.858l-3.535-3.536c-2.715 2.715-6.465 4.394-10.607 4.394z" fill="#ffecc7"/><path d="m25.681 47.8c4.028 4.517 10.098 7.2 15.319 7.2v-5c-3.789 0-7.24-1.416-9.88-3.733-1.701.757-3.527 1.276-5.439 1.533z" fill="#47a2de"/><path d="m56 35h5c0-5.523-2.239-10.523-5.858-14.142l-3.536 3.536c2.715 2.714 4.394 6.464 4.394 10.606z" fill="#ffecc7"/><path d="m51.607 24.393c-2.641-2.641-6.265-4.288-10.274-4.377 1.067 2.447 1.667 5.144 1.667 7.984 0 8.152-4.884 15.152-11.88 18.267 2.64 2.317 6.091 3.733 9.88 3.733 4.142 0 7.892-1.679 10.607-4.393s4.393-6.465 4.393-10.607-1.679-7.892-4.393-10.607z" fill="#ffecc7"/><path d="m45 34-2.068-4.653c-.266 3.987-1.696 7.645-3.959 10.653h10.027c0-2.649.427-5.281 1.265-7.795l.735-2.205z" fill="#fdb62f"/><path d="m42.948 29.384 2.052 4.616.089-.059c.584-1.878.911-3.87.911-5.941 0-2.679-.536-5.23-1.491-7.565-1.023-.244-2.083-.394-3.176-.418 1.067 2.446 1.667 5.143 1.667 7.983 0 .466-.02.926-.052 1.384z" fill="#e8d7b5"/><path d="m38.984 40c-2.036 2.701-4.736 4.874-7.864 6.267.312.274.638.533.972.781 3.992-1.276 7.436-3.773 9.9-7.048z" fill="#e8d7b5"/><path d="m41.333 20.017c1.092.024 2.153.174 3.176.418-.845-2.065-2.031-3.949-3.48-5.601-.942-.021-1.898.02-2.865.149 1.291 1.502 2.366 3.193 3.169 5.034z" fill="#3e8dc2"/><path d="m41.992 40c1.358-1.806 2.409-3.851 3.097-6.059l-.089.059-2.052-4.616c-.272 3.972-1.707 7.62-3.965 10.616z" fill="#e8a72b"/><path d="m33.948 23.316c.136-.405-.002-.852-.341-1.111-.34-.261-.808-.274-1.162-.037l-5.014 3.342-3.518-7.916c-.16-.362-.517-.594-.913-.594s-.753.232-.914.594l-3.518 7.916-5.014-3.342c-.354-.237-.823-.223-1.162.037s-.477.706-.341 1.111l.735 2.205c.806 2.416 1.214 4.932 1.214 7.479 0 .553.447 1 1 1h16c.553 0 1-.447 1-1 0-2.547.408-5.063 1.213-7.479zm-3.928 8.684h-14.04c-.086-2.227-.461-4.426-1.118-6.557l3.583 2.389c.246.163.552.211.833.128.283-.082.516-.284.636-.554l3.086-6.944 3.086 6.944c.12.27.353.472.636.554.279.083.587.035.833-.128l3.583-2.389c-.658 2.131-1.033 4.33-1.118 6.557z"/><path d="m14 35h18v2h-18z"/><path d="m41 14c-.701 0-1.434.048-2.263.142-3.851-4.368-9.47-7.142-15.737-7.142-11.579 0-21 9.421-21 21s9.421 21 21 21c.762 0 1.512-.046 2.253-.125 3.995 4.532 9.698 7.125 15.747 7.125 11.579 0 21-9.421 21-21s-9.421-21-21-21zm-3.898 26.688-2.12-2.12c2.284-2.587 3.74-5.91 3.968-9.568h3c-.236 4.484-2.024 8.553-4.848 11.688zm-14.102 1.312c-7.72 0-14-6.28-14-14s6.28-14 14-14 14 6.28 14 14-6.28 14-14 14zm20.405-9.125.68 1.531c.12.27.353.472.636.554.279.084.587.034.833-.128l3.583-2.389c-.657 2.131-1.032 4.33-1.118 6.557h-7.165c1.157-1.87 2.026-3.928 2.551-6.125zm-4.456-5.875c-.228-3.658-1.683-6.981-3.968-9.568l2.12-2.12c2.824 3.135 4.612 7.204 4.847 11.688zm-5.381-10.982c-2.587-2.284-5.91-3.74-9.568-3.968v-3c4.484.235 8.553 2.024 11.688 4.847zm-11.568-3.967c-3.658.228-6.981 1.683-9.568 3.968l-2.12-2.12c3.135-2.825 7.204-4.613 11.688-4.848zm-10.982 5.381c-2.284 2.587-3.74 5.91-3.968 9.568h-3c.235-4.484 2.024-8.553 4.847-11.688zm-3.967 11.568c.228 3.658 1.683 6.981 3.968 9.568l-2.12 2.12c-2.825-3.135-4.613-7.204-4.848-11.688zm5.381 10.982c2.587 2.284 5.91 3.74 9.568 3.968v3c-4.484-.235-8.553-2.024-11.688-4.847zm11.568 3.967c3.658-.228 6.981-1.683 9.568-3.968l2.12 2.12c-3.135 2.824-7.204 4.612-11.688 4.847zm12.568.051h13.432v-2h-11.392c.293-.326.58-.656.853-1h9.539c.553 0 1-.447 1-1 0-2.547.408-5.063 1.213-7.479l.735-2.205c.136-.405-.002-.852-.341-1.111-.34-.26-.808-.274-1.162-.037l-5.014 3.342-1.49-3.354c.022-.385.059-.766.059-1.156 0-2.405-.427-4.708-1.174-6.861 6.837.907 12.174 6.828 12.174 13.861 0 7.72-6.28 14-14 14-2.87 0-5.656-.898-7.999-2.538 1.278-.695 2.467-1.527 3.567-2.462zm5.432 6.949c3.658-.228 6.981-1.683 9.568-3.968l2.12 2.12c-3.135 2.824-7.204 4.612-11.688 4.847zm10.982-5.381c2.284-2.587 3.74-5.91 3.968-9.568h3c-.235 4.484-2.024 8.553-4.847 11.688zm3.967-11.568c-.231-3.632-1.698-6.952-3.992-9.543l2.145-2.145c2.824 3.135 4.612 7.204 4.847 11.688zm-15.949-18c4.879 0 9.32 1.864 12.688 4.898l-2.142 2.142c-2.594-2.291-5.923-3.754-9.572-3.978-.503-1.063-1.082-2.082-1.749-3.039.265-.014.525-.023.775-.023zm-13.383 32.472c1.153-.26 2.273-.609 3.346-1.051 2.586 2.092 5.738 3.325 9.037 3.533v3.018c-4.679-.244-9.069-2.204-12.383-5.5z"/></svg>